<?xml version="1.0" encoding="utf-8"?>
<!-- Generator: Adobe Illustrator 22.1.0, SVG Export Plug-In . SVG Version: 6.00 Build 0)  -->
<svg version="1.1" id="Layer_1" xmlns="http://www.w3.org/2000/svg" xmlns:xlink="http://www.w3.org/1999/xlink" x="0px" y="0px"
	 width="130px" height="40px" viewBox="0 0 130 40" style="enable-background:new 0 0 130 40;" xml:space="preserve">
<style type="text/css">
	.st0{fill:#303030;}
</style>
<path class="st0" d="M6.5,21.4v8.4H0.7v-24h9.4c2.9,0,5,0.7,6.5,2.1c1.5,1.4,2.2,3.3,2.2,5.7c0,1.5-0.3,2.8-1,4
	c-0.7,1.2-1.7,2.1-3,2.8c-1.3,0.7-2.9,1-4.8,1H6.5z M13,13.6c0-2.1-1.2-3.2-3.5-3.2h-3v6.3h3C11.8,16.7,13,15.7,13,13.6z M39.6,21.4
	H26.4c0.1,1.4,0.4,2.5,1.1,3.1c0.7,0.6,1.5,0.9,2.5,0.9c0.9,0,1.6-0.2,2.1-0.6c0.6-0.4,0.9-1,1.1-1.7h6.2c-0.3,1.3-0.8,2.5-1.6,3.6
	c-0.8,1.1-1.9,1.9-3.2,2.5c-1.3,0.6-2.7,0.9-4.3,0.9c-1.9,0-3.5-0.4-4.9-1.2c-1.4-0.8-2.6-1.9-3.4-3.4c-0.8-1.5-1.2-3.2-1.2-5.2
	c0-2,0.4-3.7,1.2-5.2c0.8-1.5,1.9-2.6,3.4-3.4c1.5-0.8,3.1-1.2,5-1.2c1.9,0,3.5,0.4,5,1.2c1.4,0.8,2.5,1.9,3.3,3.2
	c0.8,1.4,1.2,3,1.2,4.8C39.8,20.3,39.7,20.8,39.6,21.4z M32.9,16.1c-0.7-0.6-1.5-0.9-2.6-0.9c-1.1,0-1.9,0.3-2.7,1
	c-0.7,0.6-1.1,1.6-1.2,2.8h7.4C33.9,17.7,33.6,16.8,32.9,16.1z M53.7,11.6c1,0.7,1.8,1.6,2.3,2.7v-3.4h5.8v19H56v-3.4
	c-0.5,1.1-1.3,2-2.3,2.7c-1,0.7-2.3,1-3.7,1c-1.6,0-3-0.4-4.2-1.2c-1.2-0.8-2.2-1.9-2.9-3.4c-0.7-1.5-1.1-3.2-1.1-5.2
	c0-2,0.4-3.7,1.1-5.2c0.7-1.5,1.7-2.6,2.9-3.4c1.2-0.8,2.6-1.2,4.2-1.2C51.4,10.6,52.7,10.9,53.7,11.6z M48.8,16.9
	c-0.8,0.8-1.1,1.9-1.1,3.4s0.4,2.6,1.1,3.4c0.8,0.8,1.8,1.2,3,1.2c1.2,0,2.2-0.4,3-1.3c0.8-0.8,1.2-2,1.2-3.4c0-1.4-0.4-2.6-1.2-3.4
	c-0.8-0.8-1.8-1.2-3-1.2C50.6,15.7,49.6,16.1,48.8,16.9z M80.6,12.6c1.7,1.3,2.7,3.2,3.1,5.6h-6.2c-0.2-0.8-0.6-1.5-1.1-1.9
	c-0.6-0.5-1.3-0.7-2.1-0.7c-1,0-1.9,0.4-2.5,1.2c-0.7,0.8-1,2-1,3.5s0.3,2.7,1,3.5c0.7,0.8,1.5,1.2,2.5,1.2c0.9,0,1.6-0.2,2.1-0.7
	c0.6-0.5,0.9-1.1,1.1-1.9h6.2c-0.4,2.4-1.5,4.2-3.1,5.6c-1.7,1.3-3.7,2-6.2,2c-1.9,0-3.5-0.4-4.9-1.2c-1.4-0.8-2.6-1.9-3.4-3.4
	c-0.8-1.5-1.2-3.2-1.2-5.2c0-2,0.4-3.7,1.2-5.2c0.8-1.5,1.9-2.6,3.4-3.4c1.5-0.8,3.1-1.2,5-1.2C76.8,10.6,78.9,11.3,80.6,12.6z
	 M103.9,12.8c1.3,1.5,1.9,3.4,1.9,6v11H100V19.5c0-1.3-0.3-2.3-1-3c-0.7-0.7-1.6-1.1-2.7-1.1c-1.2,0-2.1,0.4-2.8,1.1
	c-0.7,0.7-1,1.8-1,3.2v10.1h-5.8V4.7h5.8v9.7c0.5-1.1,1.4-2,2.4-2.7c1.1-0.7,2.3-1,3.8-1C100.9,10.6,102.6,11.4,103.9,12.8z
	 M114.1,10.8l4.6,11.6l4.3-11.6h6.4l-11.8,28h-6.4l4.5-9.8l-8-18.3H114.1z"/>
</svg>
