<?xml version="1.0" encoding="utf-8"?>
<!-- Generator: Adobe Illustrator 22.1.0, SVG Export Plug-In . SVG Version: 6.00 Build 0)  -->
<svg version="1.1" id="Layer_1" xmlns="http://www.w3.org/2000/svg" xmlns:xlink="http://www.w3.org/1999/xlink" x="0px" y="0px"
	 width="260px" height="100px" viewBox="0 0 260 100" style="enable-background:new 0 0 260 100;" xml:space="preserve">
<style type="text/css">
	.st0{fill:#FF5B5B;}
</style>
<path class="st0" d="M42.4,58.4l-0.6,0.1l0.3-0.7l0.3,0L42.4,58.4z M36,63.8l0.3,0l0-0.4C36,63.4,36,63.5,36,63.8z M38.7,60.3
	c-0.2,0-0.2,0.2-0.2,0.4l0.2,0L38.7,60.3z M35.5,65.4l0,0.3l0.3-0.3L35.5,65.4z M38.2,60.7c-0.1,0-0.1,0-0.2,0.1l0.1,0.1
	c0.1,0,0.1,0.1,0.2,0.1l0.3,0l0-0.3L38.2,60.7z M35.3,66.3c-0.1,0.2-0.2,0.4-0.2,0.6c0.9-0.2,1.9-0.8,2.9-1.8l-1.6,0.2
	c0,0.1-0.1,0.1-0.1,0.2C36.2,66.2,35.8,66.5,35.3,66.3z M38.9,64.2c-0.2,0-0.3,0.1-0.3,0.3C38.6,64.4,38.7,64.3,38.9,64.2z
	 M40.5,61.5c-0.3,0-0.6,0-0.7,0l-0.3,0.7C40,62.1,40.4,61.9,40.5,61.5z M39.6,63.6c0.2,0,0.3-0.1,0.4-0.1c0-0.1,0.1-0.1,0.1-0.3
	l0.1-0.1C40.2,63.1,40,63,39.9,63c-0.1,0.1-0.3,0.1-0.5,0.2c-0.3,0.1-0.4,0.2-0.5,0.3l0.1,0.6L39.6,63.6z M40,61.1
	c-0.1-0.2-0.2-0.2-0.3-0.2l0,0.3C39.9,61.2,40,61.1,40,61.1z M42.4,58.4l0,0.3l0.3,0l0-0.3L42.4,58.4z M38.6,64.4
	c-0.4,0.1-0.6,0.3-0.6,0.7C38.3,65,38.5,64.8,38.6,64.4z M13.1,71.9L13.1,71.9l0.2-0.1l-0.2-0.2l-0.4,0l0,0.3L13.1,71.9z M42.7,58.4
	l0.4,0c-0.1,0-0.2-0.1-0.3-0.2C42.7,58.1,42.7,58.2,42.7,58.4z M38.1,62.9l-0.6,0.1l0,0.3l0.6-0.1L38.1,62.9z M39.7,61.4L39.7,61.4
	l0.1-0.2C39.7,61.2,39.7,61.3,39.7,61.4L39.7,61.4z M39,60.1c-0.1,0.1-0.1,0.1-0.1,0.2C39,60.3,39.1,60.2,39,60.1z M36.6,62.2
	c0,0.1,0,0.1-0.1,0.2l-0.1,0.1C36.6,62.4,36.7,62.3,36.6,62.2z M37.2,61.8L37.2,61.8c0,0.1,0.1,0.1,0.2,0.2
	C37.4,61.9,37.4,61.9,37.2,61.8L37.2,61.8z M51.1,49c-2.3,3.3-4.2,5.9-5.8,7.7l-3,3.2c-0.1,0.2-0.4,0.4-0.7,0.7
	c-0.3,0.3-0.6,0.5-0.7,0.7l-0.4,0l0.3-0.6c0.2,0,0.2-0.1,0.2-0.3l-0.2,0c0-0.1,0-0.1,0.1-0.2c0.1-0.1,0.1-0.2,0.1-0.2
	c0.1-0.2,0.2-0.3,0.3-0.3l0-0.3l-0.6,0.1c0-0.4,0.3-0.6,0.8-0.6l0,0.2l0.1-0.1c0.1,0,0.1,0,0.2-0.1c0,0,0.1-0.1,0.1-0.1l0.6-0.1
	l0,0.2c0.1,0,0.2-0.1,0.3-0.3c0.2-0.1,0.3-0.2,0.4-0.4c0.4-0.1,0.5-0.4,0.5-0.7c0.2,0,0.3-0.1,0.3-0.3c0.2,0,0.3-0.2,0.3-0.4
	c0.2,0,0.3-0.1,0.3-0.2c-0.2,0-0.3,0.1-0.3,0.2c-0.2,0.2-0.3,0.3-0.3,0.4l-0.3,0c0-0.3-0.1-0.3-0.3-0.1c0.1,0,0.1,0,0.3,0.1l0,0.3
	l-1.3,0.1l0-0.3c0.1,0,0.2-0.2,0.3-0.4c0.2,0,0.2-0.1,0.2-0.2c-0.2,0-0.2,0.1-0.2,0.2c-0.2,0.2-0.3,0.4-0.3,0.4
	c-0.2,0-0.3,0.1-0.3,0.3c-0.2,0-0.4,0.1-0.6,0.3c-0.4,0.2-0.8,0.4-1.1,0.7c0-0.2,0-0.4,0-0.6c0.3-0.3,0.5-0.6,0.6-0.6
	c0.3-0.1,0.6-0.3,0.8-0.5c0.2-0.2,0.4-0.5,0.7-0.7c0.2-0.3,0.4-0.5,0.6-0.7c0.2-0.2,0.4-0.5,0.7-0.9c0.7-0.8,1.3-1.4,1.9-1.8l0.1,0
	c0-0.3,0.1-0.6,0.4-0.9c0.2-0.1,0.4,0,0.6,0.2c0,0.1-0.1,0.1-0.2,0.1s-0.1,0.1,0,0.2l0.2-0.3l0.4-0.4c0.2-0.3,0.5-0.8,0.9-1.4
	c0.4-0.6,0.7-1.1,0.8-1.4c0.3-0.1,0.5-0.4,0.6-0.9c0.1-0.4,0.3-0.7,0.5-0.8c-0.1-0.3-0.1-0.5-0.1-0.7c0-0.2,0.2-0.4,0.4-0.6
	c0.2-0.2,0.3-0.4,0.4-0.5c0.5-0.8,0.8-1.4,0.9-1.6c1.1-2.3,1.8-4.1,2.3-5.6c0.8-2,1.1-3.8,0.9-5.4c0-0.3,0-0.5,0-0.6
	c0.1-0.2,0.1-0.7,0-1.4c-0.1-1.7-0.3-3-0.6-3.7c-0.1-1.1-0.5-2.1-1.2-3c-0.1,0-0.1-0.1-0.2-0.3c-0.1-0.2-0.2-0.2-0.2-0.3
	c-0.1-0.2-0.8-1-2.1-2.7c-0.5-0.5-1-1-1.7-1.3c-0.6-0.3-1.4-0.7-2.3-1c-0.9-0.3-1.6-0.6-1.9-0.7l-0.6,0.1c-0.4,0-0.7-0.1-0.8-0.6
	c-0.1-0.2-0.4-0.3-0.7-0.2c0-0.2-0.1-0.2-0.2-0.1c0.1,0,0.1,0,0.1,0c0,0,0,0,0.1,0l-0.1,0.3c-0.4-0.2-1.1-0.2-2.2-0.1l-1.3,0.1
	l-0.2-0.1c-0.1-0.1-0.1-0.2-0.2-0.2c0.5-0.1,0.9-0.1,1-0.3c0-0.1,0.1-0.1,0.2-0.1l0.3-0.1c-0.1,0-0.1,0-0.2-0.1
	c-0.1-0.1-0.2-0.1-0.2-0.1l-0.7,0.1c-0.2,0-0.4,0.2-0.4,0.6c-0.3,0.1-0.5,0.2-0.5,0.3l-1.8-0.1l0-0.2c0.2-0.3,0.1-0.4-0.3-0.4
	l-2.1,0.2c-0.1,0-0.1,0.1-0.2,0.2l-0.1,0.1c0.4,0,1.1,0,2.1-0.1l0.1,0.2c0,0.2,0,0.3-0.2,0.3c-0.1-0.2-0.3-0.2-0.8,0
	c-0.5,0.1-0.8,0.2-0.9,0.2c-0.5,0.1-1,0.2-1.4,0.5c-0.1,0.1-0.6,0.2-1.4,0.5c-0.2,0-0.4-0.1-0.7-0.3l0-0.2c0.4,0,0.6-0.1,0.8-0.2
	l0.1-0.1c0-0.1,0.1-0.1,0.1-0.2l-1.6,0.2c0,0.1-0.1,0.2-0.2,0.3c-0.4,0-0.7,0.1-0.9,0.2c-0.2,0-0.2,0.1-0.2,0.3l0.8-0.1
	c0.2,0,0.3-0.1,0.4-0.4c0.3,0,0.4,0.2,0.3,0.5c-0.2,0.3-0.4,0.4-0.6,0.3c-0.1,0-0.1,0.1-0.2,0.2c-0.1,0.1-0.2,0.2-0.3,0.2
	c-0.3,0.1-0.6,0.2-1.1,0.3c-0.5,0.1-0.8,0.3-1.1,0.4c-0.9,0.5-1.6,0.8-2.2,0.8l-0.1,0c-0.1,0.2-0.8,0.5-1.9,1.1l-0.6,0.4
	c-0.4,0.4-0.9,0.8-1.7,1.2c-0.7,0.4-1.2,0.8-1.5,1c-0.6,0.3-1,0.6-1.3,1c-0.5,0.5-1,0.8-1.4,1.1c-0.5,0.3-1.1,0.8-1.8,1.5
	c-0.7,0.7-1.2,1.2-1.5,1.4c-0.1,0.1-0.2,0.2-0.2,0.3c-0.1,0.1-0.1,0.2-0.2,0.2c0,0.2-0.1,0.3-0.3,0.5c-0.6,0.5-1.2,1.2-1.8,1.9
	c-0.1,0.2-0.3,0.5-0.8,1c-0.3,0.3-0.5,0.6-0.5,0.9c0,0.3-0.2,0.7-0.7,1.3c-0.1,0.1-0.2,0.2-0.3,0.5c-0.1,0.2-0.2,0.4-0.4,0.5
	c-0.1,0.1-0.2,0.3-0.3,0.6c-0.1,0.3-0.2,0.5-0.3,0.6c-0.4,0.3-0.6,0.7-0.5,1.3c-0.2,0.2-0.3,0.3-0.4,0.4c-0.4-0.1-0.5,0-0.4,0.4
	c0.2,0.3,0.3,0.6,0.1,0.8c-0.2,0.6-0.3,0.9-0.3,0.9c0,0.3-0.1,0.6-0.4,0.8c-0.2,0.3-0.3,0.6-0.3,0.8c0,0.2,0,0.5-0.1,0.8
	c-0.1,0.3-0.1,0.5-0.1,0.7c0.2,0,0.2,0.2,0.2,0.5c0,0.3,0,0.5,0.1,0.6c0.1,0.1,0,0.3-0.1,0.5C4,47,4,47.2,4.1,47.4
	c0,0.1,0,0.1-0.1,0.2c0,0.1-0.1,0.2-0.1,0.3c0,0.1-0.1,0.2-0.1,0.3c0,0.3,0.1,0.5,0.2,0.5c0.2,0.1,0.1,0.4-0.2,0.7
	c-0.1,0.2,0,0.3,0.1,0.5c0.2,0.1,0.3,0.3,0.3,0.5l0.1,0.8c-0.1,0.5-0.1,0.8-0.2,0.9c-0.2,0.5-0.2,1,0.2,1.6l0.1,0.7
	c0,0.2,0,0.4-0.1,0.6c-0.1,0.3-0.1,0.5-0.1,0.6l-0.9,0.3l-0.1-0.6l-0.1-0.1c-0.1,0-0.1-0.1-0.1-0.2C3,55.1,3,55.2,3,55.3l0.1,0.8
	c-0.1,0.1-0.2,0.2-0.4,0.3c-0.2,0.1-0.3,0.2-0.3,0.2c0-0.3,0-0.5,0.1-0.6c0-0.1-0.1-0.4-0.2-0.8C2.1,54.6,2,54.3,2.1,54
	c0.2-0.5,0.1-1.1-0.2-1.8c0-0.3-0.1-0.6-0.1-0.7l0-0.4c0.1-0.3,0.1-0.7,0-1.2c0-0.5-0.1-0.9,0-1.1l-0.1-1.1l0.1-0.1l0.3,0.1
	c0,0.4,0.2,0.6,0.4,0.7c0,0.2,0.1,0.2,0.2,0.1l-0.2-0.1c0-0.1,0-0.2,0-0.3c0-0.1,0-0.1,0-0.2c0.2-0.4,0.1-0.7-0.2-0.9
	c-0.2,0-0.2-0.1-0.3-0.2c-0.1-0.6-0.1-1.1-0.1-1.5l0-0.1C1.9,45.1,2,45,2.1,45c0.1,0,0.2,0.1,0.2,0.2c0.3,0.7,0.4,1.1,0.4,1.2
	l-0.1-1l0-0.3c0.4-0.2,0.5-0.7,0.4-1.6C3,43,3.2,42.6,3.5,42.4l0-0.4c-0.1-0.2-0.2-0.4-0.1-0.5c0-0.1,0.1-0.1,0.2-0.2
	c0.1-0.1,0.1-0.2,0.2-0.4c0.1-0.2,0.1-0.3,0.2-0.3c0-0.1,0-0.2,0-0.4c0-0.2,0-0.3,0.1-0.4c0-0.6,0.1-0.9,0.3-1.1
	c0.1-0.2,0.2-0.5,0.2-0.9c0-0.2,0-0.3,0-0.3c0.3-0.1,0.5-0.5,0.6-1c0.1-0.5,0.2-0.9,0.3-1l0.3-0.2c0.1-0.3,0.2-0.7,0.5-1.1
	c0.3-0.4,0.4-0.7,0.4-0.9l0.6-0.7c0.3-0.3,0.7-0.9,1.2-1.7c0.5-0.8,0.9-1.3,1.3-1.7c1.1-1,1.8-1.7,2.1-2.1l0.2-0.3
	c0-0.1,0.1-0.1,0.3-0.1c0.1,0,0.2-0.1,0.3-0.1c0.8-0.8,2-1.8,3.5-2.9c0.1-0.2,0.4-0.4,0.8-0.6c0.4-0.2,0.7-0.4,0.8-0.6
	c0.1-0.2,0.4-0.4,0.9-0.6c0.4-0.2,0.7-0.4,0.8-0.4c0.2-0.1,0.9-0.5,2.4-1.2c2-1,3.9-1.9,5.7-2.5c0.3-0.1,0.8-0.3,1.5-0.5
	c0.7-0.2,1.2-0.3,1.5-0.4c0.2,0,0.3,0,0.5,0.2c0,0.2,0.1,0.2,0.2,0.1c-0.1,0-0.2-0.1-0.2-0.1c0.1-0.2,0.2-0.3,0.3-0.3
	c0.2-0.1,0.5-0.1,0.9-0.2c0.5,0,0.8-0.1,1.1-0.3c0.2,0,0.3,0,0.5,0.2c0,0.2,0.1,0.2,0.2,0.1c-0.1,0-0.2,0-0.2-0.1
	c0.1-0.3,0.2-0.4,0.3-0.4l5.1-0.5c0.2,0.1,0.6,0.2,1.1,0.2c0.5,0,0.8,0,1,0.1l1.9,0.5c0.5,0.1,1.2,0.2,2,0.6
	c0.9,0.3,1.4,0.5,1.5,0.5c0.5,0.1,1.2,0.4,2,1c0.1,0.1,0.4,0.4,1,0.9c0.5,0.4,0.9,0.8,1.1,1.1c0.1,0.1,0.3,0.1,0.5-0.2
	c0.6,0.2,0.9,0.6,1,1.2l-0.2,0c0,0.1,0,0.2,0.1,0.2c0-0.1,0.1-0.1,0.1-0.2c0.7,0.3,1.1,0.7,1.2,1.4c0,0.4,0.4,1,1.1,2l0.3,0.1
	c0.2-0.1,0.3-0.1,0.4,0c0.1,0.1,0.1,0.2,0.1,0.3c0,0.1,0,0.2,0.1,0.3c0.2,0.1,0.5,0.7,1,1.6c0.2,0.2,0.2,0.5,0.1,0.6
	c0,0.8,0.2,1.6,0.6,2.3l0.1,0.8c0,0.2,0.1,0.5,0.1,0.9c0,0.4,0.1,0.8,0.2,1c0,0.2,0,0.4-0.1,0.6c-0.1,0.2-0.1,0.4-0.1,0.6
	c-0.2,0-0.3,0.2-0.3,0.6c-0.2,0.1-0.3,0.2-0.3,0.4c0.1,0,0.1,0.1,0.3,0.1l0.2,0.1l0.1,0c0-0.1-0.1-0.3-0.2-0.6c0.1,0,0.2,0,0.2,0.1
	l0.4,0.1c0.1,0.3,0.1,0.4-0.2,0.4L57,35.5l-0.3,0.3c0.1,0.2,0,0.5-0.1,0.9c-0.1,0.4-0.2,0.7-0.2,0.8c-0.4-0.2-0.6-0.4-0.5-0.8
	c0-0.2,0-0.6,0-1.2l-0.1-0.2c-0.1,0.1-0.2,0.2-0.2,0.2c-0.1,0.5-0.2,0.8-0.2,0.8c0.1,0.4,0.1,1,0,1.7c-0.1,0.7-0.1,1.3,0,1.6
	c-0.3,0.4-0.5,0.9-0.4,1.7c-0.1,0-0.3,0.1-0.6,0.3c-0.1-0.5,0-0.9,0.1-1.1c0.3-0.3,0.4-0.9,0.3-1.7c-0.2,0-0.2,0.1-0.2,0.2
	c-0.2,0.7-0.6,1.6-1.1,2.7c-0.6,1.2-0.9,1.9-1,2.1c0,0.1,0,0.3-0.1,0.4c-0.1,0.2-0.2,0.3-0.2,0.5c-0.7,1-1.1,1.7-1.2,2.1
	c-0.2,0.7-0.6,1.3-1.2,1.8c-0.1,0.1-0.3,0.3-0.5,0.6c-0.2,0.3-0.4,0.6-0.6,0.7c0,0.1-0.1,0.2,0,0.6l-0.7,0.7c-0.1,0.1,0,0.2,0.3,0.3
	l0.1,0.1l0.1,0.2c-0.2,0.1-0.3,0.2-0.3,0.3l-0.3,0c0-0.1,0-0.1-0.1-0.2c0,0.1,0,0.1-0.1,0.2l-0.1,0.1l0.2,0l0,0.3l-0.2,0
	c0,0.1,0,0.1,0.1,0.1l0.1,0.1c0-0.1,0.1-0.1,0.1-0.2c0.2,0,0.3-0.1,0.3-0.3c0.2,0,0.3-0.1,0.3-0.3l0.2-0.1c0.3-0.2,0.6-0.5,0.8-0.9
	c0.2-0.3,0.5-0.7,0.8-1.1c0.3-0.4,0.5-0.7,0.6-0.9c1-1.7,1.7-3,2-3.9c0.3-1,0.7-1.7,1-2.1c0-0.1,0.1-0.2,0.1-0.3
	c0-0.2,0.1-0.3,0.2-0.4c0.1-0.1,0.2-0.2,0.3-0.3c0.1,0.5,0,1-0.3,1.5c-0.2,0.3-0.4,0.7-0.6,1.3c-0.2,0.6-0.4,1-0.6,1.2
	C52.3,47,51.7,48.1,51.1,49z M2.6,50.1l0-0.2l-0.1,0L2.6,50.1z M6,35.5c-0.1,0-0.2,0-0.2-0.1C5.9,35.6,5.9,35.6,6,35.5z M12.3,27.9
	l-0.2,0l0.1,0.1C12.3,28,12.3,28,12.3,27.9z M13.2,27.9L13.2,27.9L13,27.9L13.2,27.9z M17.4,23.7L17.4,23.7L17.4,23.7l0.2,0
	l-0.1-0.2L17.4,23.7z M16.2,24.4L16.2,24.4l0.2,0.1L16.2,24.4z M15.3,25.1L15.3,25.1L15.3,25.1L15.3,25.1z M13.8,27.4
	c-0.1,0.1-0.1,0.1-0.1,0.2C13.8,27.6,13.8,27.5,13.8,27.4z M14,27.1c-0.1,0.1-0.1,0.2-0.1,0.3C13.9,27.2,14,27.1,14,27.1z
	 M14.3,26.7c0,0.1,0,0.1-0.1,0.2L14.1,27C14.4,26.9,14.4,26.9,14.3,26.7z M15,26.3c-0.1,0-0.1,0-0.1,0.1l-0.1,0.1
	c0.1,0,0.1,0,0.1,0.1L15,26.3z M16.4,25.2c-0.3,0-0.5,0.2-0.5,0.4c-0.2,0-0.3,0.1-0.3,0.3c-0.4,0-0.6,0.1-0.6,0.3
	c0.4,0,0.6-0.1,0.6-0.3c0.2-0.1,0.3-0.2,0.3-0.3C16.3,25.6,16.5,25.4,16.4,25.2z M16.7,24.9c-0.2,0-0.2,0.1-0.2,0.3
	C16.7,25.2,16.7,25.1,16.7,24.9z M18.1,24c-0.1,0-0.1,0-0.1-0.1L18,24c-0.4,0-0.6,0.2-0.7,0.4L17,24.5c-0.2,0.1-0.2,0.2-0.2,0.3
	c0.3,0,0.5-0.2,0.5-0.4c0.4,0,0.6-0.2,0.7-0.4C18,24,18.1,24,18.1,24z M24,19.9L24,19.9L24,19.9L24,19.9z M23.1,20.3L23.1,20.3
	L23.1,20.3L23.1,20.3z M22.1,20.7c0.1,0,0.1,0,0.2,0c0.1,0,0.1,0,0.2,0c0-0.1,0-0.1,0.1-0.1c-0.1,0-0.1,0-0.2,0c-0.1,0-0.1,0-0.2,0
	L22.1,20.7z M19.4,22.2l0.3,0.2c0.1-0.1,0.2-0.1,0.2-0.3L19.4,22.2z M20.8,22.3c-0.3,0-0.4,0.1-0.5,0.4c-0.3,0-0.5,0.2-0.6,0.4
	c-0.6,0.1-0.9,0.2-1.1,0.4l0,0.2l0.2,0c0.4-0.1,0.7-0.4,0.9-0.6c0.4,0,0.6-0.2,0.6-0.4C20.7,22.6,20.9,22.5,20.8,22.3z M24,20.8
	l-0.5,0c-0.6,0.2-0.9,0.4-1.1,0.7c-0.7,0.1-1.2,0.3-1.4,0.8c0.7-0.1,1.2-0.3,1.4-0.8l0.5,0C23.6,21.1,23.9,20.9,24,20.8z M27.9,19
	l-1,0.1c0,0.1,0,0.2-0.1,0.3l-0.6,0.1c-0.2,0-0.4,0.1-0.4,0.4l-0.6,0.1c-0.2,0-0.3,0.2-0.3,0.4l-0.6,0.1c-0.2,0-0.3,0.1-0.4,0.2
	c0.1,0.1,0.3,0.1,0.5,0.1c0.2,0,0.4-0.1,0.4-0.4l0.6-0.1c0.2,0,0.3-0.2,0.3-0.4l0.6-0.1c0.2,0,0.3-0.1,0.4-0.4l0.9-0.1
	C27.8,19.4,27.9,19.3,27.9,19z M28.1,18.2l-0.2,0l0.1,0.2L28.1,18.2z M29.8,17.7L29.8,17.7l-0.3,0c0.1,0.1,0.1,0.1,0.3,0.1
	C29.8,17.9,29.8,17.8,29.8,17.7z M32.1,17.8L32.1,17.8c-0.7,0-1.1,0-1.1,0.1L31,18.1l1.1-0.1C32.1,17.9,32.1,17.8,32.1,17.8z
	 M33.1,17.7c-0.2,0-0.2,0.1-0.1,0.2C33,17.9,33,17.8,33.1,17.7z M37.7,17c-0.1,0-0.1,0-0.2-0.1l-0.1,0l-0.3,0L37,17.1
	c0,0.1,0.1,0.1,0.3,0.1l0.2,0C37.5,17.2,37.6,17.1,37.7,17z M40.6,17L40.4,17L39.8,17c0.1,0.2,0.3,0.2,0.7,0.2L40.6,17z M44.1,17.7
	l-0.3-0.1c-0.2,0-0.3,0.1-0.3,0.2c0.2,0,0.3,0,0.3,0C43.9,17.8,44,17.7,44.1,17.7z M45,18L45,18L45,18L45,18z M45.7,18.1L45.7,18.1
	L45.7,18.1L45.7,18.1z M51.8,21.5c0-0.3-0.1-0.3-0.3-0.1C51.6,21.4,51.7,21.4,51.8,21.5z M54.9,38.2c0-0.1-0.1-0.2-0.2-0.1l0,0.2
	c0,0.1,0,0.3,0,0.6C55,38.8,55.1,38.5,54.9,38.2z M56.6,32.1l-0.2-0.3l-0.2,0L56.1,32c0.2,0.2,0.2,0.7,0,1.4c0,0.3,0.2,0.3,0.4,0.1
	l0.2-0.1c0-0.1,0-0.2,0-0.4c0-0.2,0-0.4,0-0.5C56.7,32.5,56.7,32.3,56.6,32.1z M54.8,26.6c0,0.4,0.3,1.2,0.8,2.4l0.1,0.1l0.2,2
	c0,0.1,0,0.1,0.1,0.2c0.1,0.1,0.1,0.2,0.1,0.3l0.3,0c0.1,0,0.1-0.1,0.1-0.2c-0.1-0.2-0.2-0.9-0.4-2c-0.1,0-0.2-0.1-0.4-0.2
	c0.1-0.5-0.2-1.3-0.6-2.3C54.9,26.6,54.8,26.6,54.8,26.6l0-0.4L54.7,26c-0.1,0-0.2,0.1-0.1,0.2C54.5,26.4,54.6,26.5,54.8,26.6z
	 M41.3,60l-0.2,0l0,0.4C41.2,60.4,41.3,60.3,41.3,60z M41.4,59.9c-0.1,0-0.1-0.1-0.1-0.2L41.4,59.9L41.4,59.9z M41.5,59.1
	c-0.2,0-0.2,0.1-0.2,0.3C41.4,59.4,41.5,59.3,41.5,59.1z M42.5,59c-0.2,0-0.3,0.1-0.3,0.3C42.4,59.3,42.5,59.2,42.5,59z M43.1,56.5
	c-0.1,0-0.2,0.1-0.1,0.2C43,56.7,43.1,56.6,43.1,56.5z M44.3,55c0.3,0,0.4-0.1,0.5-0.1c0-0.1,0.1-0.2,0.1-0.5
	C44.5,54.6,44.3,54.8,44.3,55L44,55.4c-0.1,0-0.2,0.1-0.3,0.3c-0.1,0-0.2,0.1-0.3,0.3c-0.2,0-0.2,0.1-0.2,0.3c0.2,0,0.2-0.1,0.2-0.3
	c0.2-0.1,0.3-0.2,0.3-0.3c0.2,0,0.3-0.1,0.3-0.3C44.2,55.4,44.3,55.3,44.3,55z M45,56.3c-0.4,0-0.5,0.1-0.5,0.2
	C44.8,56.5,45,56.4,45,56.3z M45,54.1l-0.1,0.3C45,54.3,45.1,54.3,45,54.1z M45.3,55.9c-0.2,0-0.2,0.1-0.2,0.3
	C45.1,56.1,45.2,56,45.3,55.9z M45.5,55.6c-0.2,0-0.2,0.1-0.2,0.3C45.5,55.8,45.6,55.7,45.5,55.6z M45.8,55.4
	c-0.1,0-0.1,0.1-0.1,0.2C45.7,55.5,45.8,55.4,45.8,55.4z M45.9,53.1c-0.1,0-0.1,0-0.1-0.2C45.8,53.2,45.8,53.2,45.9,53.1z
	 M46.8,54.3c-0.3,0-0.5,0.1-0.5,0.1l0,0.2c0.1,0.1,0.1,0.1,0.2,0L46.8,54.3z M47,54l-0.2,0l-0.1,0.2C46.8,54.2,46.9,54.1,47,54z
	 M47.2,53.3c-0.1,0-0.1,0-0.2-0.1l-0.1,0C47,53.4,47.1,53.4,47.2,53.3z M47.5,52.5l0-0.2l-0.2,0.2C47.3,52.4,47.4,52.5,47.5,52.5z
	 M54.8,24.5l-0.2-0.1C54.7,24.5,54.7,24.5,54.8,24.5z M41.8,58.5l-0.3,0.3l0.3,0L41.8,58.5z M39,61.6L39,61.6L39,61.6L39,61.6
	L39,61.6z M39,61.9L39,61.9L39,61.9L39,61.9L39,61.9z M39.1,61.7L39,61.6l0,0.2L39.1,61.7z M7.5,31.3l-0.2,0c0.1,0,0.1,0,0.1,0.1
	L7.5,31.3z M8.4,30.1c-0.1,0.1-0.1,0.2-0.1,0.3C8.4,30.4,8.4,30.3,8.4,30.1z M8.7,29.8c-0.1,0-0.1,0-0.1,0.1c0,0.1-0.1,0.1-0.1,0.1
	C8.6,30,8.7,30,8.7,29.8z M5.3,34.7L5.3,34.7L5.3,34.7C5.2,34.7,5.3,34.7,5.3,34.7z M8.1,30.4C8,30.5,8,30.6,8,30.7L8.1,30.4z
	 M6.1,33.4l0.1-0.2l-0.2,0C6,33.3,6,33.4,6.1,33.4z M50.7,20.2c0.1,0,0.2,0.1,0.2,0.1C51,20.1,50.9,20.1,50.7,20.2z M9,29.4
	c-0.3,0-0.4,0.1-0.4,0.3C8.9,29.7,9,29.6,9,29.4z M12,26.9l-0.2,0l0,0.1L12,26.9z M11.6,26.8c0.1,0,0.1,0,0.2,0.1
	C11.8,26.7,11.7,26.7,11.6,26.8z M9.6,28.8c-0.4,0.1-0.6,0.3-0.6,0.6l0.6-0.1L9.6,28.8z M9.8,28.6c0.1,0,0.1-0.1-0.1-0.1l-0.1,0.2
	C9.6,28.7,9.6,28.7,9.8,28.6z M10.3,28.2l0.3-0.3l0-0.1c-0.1-0.1-0.2-0.1-0.2-0.1c-0.2,0-0.2,0.1-0.2,0.2
	C10.2,28,10.2,28.1,10.3,28.2L10.3,28.2z M2.4,43.1L2.4,43.1l-0.1-0.3c0,0.1,0,0.2-0.1,0.2c0,0.1,0.1,0.2,0.2,0.3
	C2.3,43.2,2.3,43.1,2.4,43.1z M4.8,35.9l-0.2-0.1c-0.1,0-0.2,0-0.1,0.1c-0.1,0.1-0.1,0.2-0.1,0.3l0.2,0.1L4.8,35.9z M42,61.6
	c0-0.1,0-0.2,0.1-0.2C41.8,61.3,41.8,61.4,42,61.6z M44.1,59.1c0.2,0,0.3-0.1,0.3-0.3C44.1,58.9,44,59,44.1,59.1z M40.5,60.6
	l0.3,0.2l0-0.3C40.7,60.5,40.6,60.5,40.5,60.6z M41,62.1l-0.1,0.2l0.1,0.1c0-0.1,0-0.1,0.2-0.1C41.2,62.1,41.1,62,41,62.1z
	 M44.3,58.8c0.2,0,0.2-0.1,0.1-0.2C44.4,58.7,44.4,58.8,44.3,58.8z M42,61.2l0.6-0.1c0.2-0.1,0.4-0.3,0.7-0.6
	c0.3-0.3,0.5-0.5,0.6-0.6c0.1-0.2,0.2-0.4,0.2-0.7c-0.6,0.4-0.9,0.6-1,0.7C42.5,60.5,42.1,60.9,42,61.2z M4.1,37.6
	c0-0.1-0.1-0.2-0.2-0.1l-0.1,0.2l0.1,0.1C3.9,37.7,4,37.7,4.1,37.6z M3.4,39c0.3,0,0.5-0.3,0.4-0.7c0-0.1-0.1-0.1-0.2-0.1
	C3.4,38.3,3.3,38.5,3.4,39C3.4,38.9,3.4,38.9,3.4,39z M2.5,42.3l0.1-0.2c-0.1,0-0.1,0-0.1-0.1C2.4,42.1,2.4,42.2,2.5,42.3z
	 M40.7,59.5c-0.2,0.2-0.3,0.3-0.3,0.3C40.6,59.8,40.7,59.7,40.7,59.5z M3,40.6l0-0.2l-0.1,0L3,40.6L3,40.6z M40.2,58.9L40,59
	c-0.1,0-0.1,0-0.1,0.1l-0.1,0.1l0.1,0.1l0.2,0L40.2,58.9z M45.5,57.5l0.2,0.2l0.2,0l0.5-1C45.9,56.7,45.6,57,45.5,57.5z M48.3,54.3
	c0.2-0.1,0.3-0.3,0.3-0.6C48.3,53.8,48.3,54,48.3,54.3z M46.4,56.3c0,0.1-0.1,0.2,0,0.4c0.4-0.1,0.6-0.3,0.7-0.5
	c0.5-0.6,0.9-1.3,1.3-1.9c-0.2,0-0.3,0.1-0.4,0.1L46.4,56.3z M39.6,60.2c0.3-0.2,0.5-0.4,0.8-0.4c-0.2,0.3-0.3,0.5-0.4,0.6
	c0,0.3-0.1,0.4-0.2,0.5c-0.4,0-0.7,0.2-0.9,0.6c-0.1,0.2-0.2,0.3-0.2,0.3l0,0.1l-0.1,0l-0.2,0c0,0.2,0.1,0.2,0.3,0.2l0,0.3
	c0.2,0,0.2-0.1,0.2-0.3l-0.2,0l0-0.2l0.2,0C39,62,39,62.1,39,62.2l0.6-0.1c-0.1,0.3-0.2,0.5-0.3,0.7l-0.4,0.8l-0.6,0.1l0-0.4
	c0.2,0,0.3-0.1,0.3-0.3c0.2,0,0.2-0.1,0.2-0.3c-0.1,0.2-0.2,0.3-0.2,0.3l-0.3,0l0-0.3c0-0.1,0-0.1-0.1-0.1c-0.1,0-0.1,0-0.2,0.1
	c-0.1,0.1-0.2,0.2-0.3,0.4c-0.4,0-0.5,0.2-0.5,0.4l0.6-0.1l0,0.4l0.6-0.1c-0.1,0.2-0.3,0.4-0.6,0.7c-0.3,0.1-0.4,0.2-0.5,0.4
	c0,0.1-0.1,0.1-0.3,0.2c-0.1,0.1-0.2,0.1-0.3,0.2c-0.1,0.1-0.1,0.1-0.1,0.2l-0.6,0.1c-0.1,0-0.1-0.1-0.1-0.2l-0.2,0.3
	c-0.1,0.1-0.2,0.1-0.2,0.3l0.1,0.1c0.1,0,0.1,0,0.2,0l-0.3,0.7c-0.3,0-0.5,0.1-0.7,0.3c-0.1,0-0.1,0-0.1,0.1l-0.1,0.2l0.2,0
	c0.1,0,0.1,0.1,0.2,0.1l0.2,0c0,0.1-0.1,0.3-0.2,0.5c-0.1,0.2-0.2,0.3-0.2,0.5c-0.4,0.5-0.8,0.6-1.3,0.3c0-0.1,0-0.1,0.1-0.2
	c0-0.1,0.1-0.1,0.1-0.2c0-0.1,0.1-0.2,0.1-0.2c0-0.2,0-0.2-0.1-0.2l-0.2-0.1c-0.5,0.6-1,1.1-1.6,1.4l0,0.2c0.1,0,0.1,0,0.2,0
	c0.1,0,0.1,0,0.2,0c0.3,0,0.5-0.1,0.6-0.4c0.2-0.2,0.4-0.4,0.8-0.4c-0.1,0.2-0.2,0.3-0.2,0.4c0,0.1-0.1,0.2-0.2,0.3
	c-0.1,0.1-0.2,0.1-0.2,0.1c0,0-0.1,0.1-0.3,0.2c-0.2,0.1-0.4,0.2-0.5,0.3c-0.1,0-0.2,0-0.3,0.1c-0.4,0.6-0.9,1-1.6,1.1l-0.6,0.5
	c-0.7,0.4-1.2,0.7-1.4,0.7c-0.1,0-0.3,0.1-0.5,0.2c-0.3,0.1-0.4,0.2-0.5,0.2c-0.4,0.2-0.9,0.4-1.6,0.8c-0.7,0.3-1.2,0.5-1.4,0.6
	c-0.7,0.2-1.8,0.3-3.3,0.5l-3,0.3c-0.2,0-0.4-0.1-0.4-0.3c-0.3,0.4-0.6,0.9-0.7,1.7c-0.1,0.3-0.3,0.8-0.5,1.5
	c-0.2,0.7-0.4,1.3-0.6,1.7c0,0.2-0.1,0.5-0.3,0.9c-0.1,0.5-0.3,0.8-0.3,1.1c-0.3,0.9-0.6,1.5-0.7,2c0,0.2-0.1,0.4-0.2,0.6
	c-0.1,0.2-0.1,0.4-0.1,0.5c-0.1,0.3-0.2,0.7-0.4,1.2c-0.2,0.5-0.4,1-0.4,1.3c0,0.4-0.1,0.7-0.4,0.8c-0.1,0.1-0.2,0.4-0.3,0.7
	c0,0.3-0.1,0.6-0.1,0.7c-0.3,0.4-0.5,0.8-0.4,1.2c0,0.1-0.1,0.2-0.3,0.6c-0.2,0.3-0.4,0.7-0.6,1.3c-0.2,0.6-0.4,1-0.6,1.3
	c-0.1,0-0.1,0.1-0.1,0.2c0,0.1,0,0.2,0,0.2c0,0.4,0,0.6-0.2,0.6c-0.1,0.1-0.3,0.4-0.3,0.8C9.3,96.2,9.1,96.9,9,97
	c-0.1,0.1-0.2,0.3-0.3,0.6c-0.1,0.3-0.1,0.5-0.2,0.6c-0.3,0.6-0.5,1.1-0.7,1.5C7.6,99.9,7.4,100,7,100c-0.6-0.2-1.2-0.7-2-1.3
	l-0.5-0.7c0-0.3-0.1-0.6-0.3-1.1C4.1,96.3,4,96,4,95.7c0.8-1.5,1.4-2.7,1.9-3.8l0.3,2.8l0.1,0.1l0.2,0c0.4-0.7,0.6-1.1,0.7-1.2
	c-0.1-0.1-0.1-0.3,0-0.3c0-0.3,0.1-0.6,0.2-0.9c0.3,0,0.4-0.3,0.6-0.8c0.1-0.4,0.2-1,0.5-1.7c0.3-0.8,0.4-1.3,0.5-1.6l0.1-1
	c0-0.1,0.1-0.3,0.2-0.5c0.1-0.2,0.2-0.3,0.2-0.4c0-0.2,0.1-0.5,0.5-1l0-0.1c0-0.3,0.1-0.6,0.3-1.1c0.2-0.4,0.3-0.8,0.3-1
	c0.2-0.3,0.4-1.1,0.7-2.2c0.1-0.3,0.3-0.6,0.5-1.1c0-0.1,0-0.2,0.1-0.3c0-0.1,0.1-0.2,0.1-0.2l1.3-4.7c0.1-0.7,0.1-1.1,0-1.2
	c-0.1-0.1-0.3-0.3-0.8-0.6c-0.1,0-0.2-0.1-0.3,0l-1.8-1.5c0-0.2,0-0.3,0-0.3c0.1-0.1,0.2-0.2,0.2-0.2c0.5,0,1.2,0.3,2.2,0.9
	l-0.9,0.1c0,0.2,0.2,0.3,0.4,0.3l0.5,0c0.1,0.2,0.3,0.3,0.5,0.3c0.2,0,0.4-0.1,0.5-0.1c0-0.1,0.1-0.2,0.3-0.5
	c0.1-0.3,0.2-0.5,0.3-0.7c0-0.3,0.1-0.7,0.3-1.4c0.2-0.7,0.3-1.2,0.3-1.5c0.8-3.2,1.2-4.8,1.2-5.1c0.1-0.2,0.3-0.6,0.4-1.1
	s0.2-0.8,0.2-1c0.1-0.3,0.2-0.7,0.2-1.1c0.1-0.5,0.1-0.8,0.2-1c0.1-0.4,0.2-1.1,0.4-1.9c0.2-0.8,0.4-1.4,0.4-1.9
	c0.1-0.4,0.2-0.9,0.3-1.4c0.1-0.6,0.2-1,0.2-1.3c0.1-0.4,0.1-1.1,0.3-1.9c0.1-0.8,0.2-1.5,0.3-1.9c0.5-2.2,0.8-3.6,0.9-4.1
	c0.1-0.9,0.6-1.4,1.6-1.4l0.4,0c0.7,0.1,1.2,0.3,1.4,0.5c0.2,0.2,0.4,0.6,0.4,1.2l0,0.5c-0.2,0.3-0.3,0.7-0.2,1.3
	c0,0.2,0,0.4-0.2,0.6c0,0.1-0.2,0.4-0.4,0.9c0,0.2-0.1,0.5-0.2,0.9c-0.1,0.4-0.2,0.7-0.2,0.9c0,0.3-0.2,0.9-0.5,2
	c0,0.1-0.1,0.2-0.2,0.6c0.1,0.5-0.1,1.3-0.4,2.4c-0.3,0.5-0.4,0.8-0.4,1.2c0,0.3,0,0.5-0.1,0.8c-0.1,0.3-0.2,0.6-0.3,1
	c-0.1,0.4-0.2,0.6-0.2,0.8c0,0.2,0,0.6-0.2,1.1c-0.1,0.5-0.2,0.8-0.2,1.1c0,0.3-0.1,0.6-0.3,1.1c-0.1,0.5-0.2,0.8-0.2,1l-0.5,1.6
	c-0.3,1.2-0.5,2.1-0.6,2.7c-0.4,1.6-0.7,2.5-0.8,2.7c0,0.1-0.1,0.3-0.1,0.6c0,0.3-0.1,0.5-0.1,0.6c0,0.3,0,0.4,0.1,0.5
	c0.1,0.1,0.3,0.1,0.6,0c0.5-0.3,1.1-0.3,1.6-0.2c0.1,0,0.2,0,0.2,0.1L20,71.2l-0.3,0.3c-0.9,0.1-1.5,0.2-2,0.3l-0.2,0l0.2,0.1
	c0.7,0.1,1.4,0,2-0.3l0-0.2c0.7,0,1.7-0.2,2.9-0.8c0.4-0.2,1-0.5,1.8-1c0.8-0.5,1.4-0.8,1.8-1c1.1-0.5,1.7-0.7,1.8-0.8
	c2.6-1.7,4-2.7,4.3-3c0-0.2,0-0.2,0.1-0.3c0.3,0,0.7-0.2,1.1-0.5c0.4-0.3,0.6-0.5,0.7-0.5c0.7-0.4,1.2-0.9,1.5-1.3
	c0.1-0.1,0.3-0.2,0.3-0.2c0.1,0,0.2,0,0.2,0.1c0.1,0,0.2,0.1,0.2,0.1l0,0.2l0.1,0.2c-0.3,0-0.6,0.1-0.9,0.4c0,0.1-0.3,0.3-0.8,0.7
	c-0.5,0.4-0.8,0.8-1,1.1c-0.4,0.1-1,0.3-1.7,0.7c-0.5,0.2-0.8,0.6-0.9,1.1c-0.4,0-0.8,0.3-1.4,0.8c-0.1,0-0.2,0.1-0.1,0.3
	c-0.4,0-0.6,0.2-0.6,0.4c-0.4,0-0.6,0.2-0.6,0.4c-0.4,0-0.7,0.1-0.9,0.2l-2.5,1.4l-0.1,0.1c0,0.1-0.1,0.1-0.1,0.2l-0.5,0
	c-0.2,0-0.4,0.1-0.4,0.4l-0.3,0l-0.2,0.3l0.5,0C24,71,24,71,24,70.9l0.6-0.1c0.2,0,0.3-0.1,0.4-0.4l0.8-0.1c1.1-0.6,2-1.1,2.6-1.4
	l0.1-0.1c0-0.1,0.1-0.2,0.1-0.3c0.3,0,0.5-0.2,0.6-0.4c0.4,0,0.6-0.2,0.6-0.4c0.7-0.2,1.2-0.6,1.5-1.1c0.1,0,0.2,0,0.4,0
	c0.2,0,0.3-0.1,0.3-0.1c0.1-0.1,0.4-0.3,0.8-0.6c0.4-0.3,0.7-0.5,1-0.6c0-0.1,0.1-0.1,0.1-0.2c0-0.1,0.1-0.2,0.1-0.2
	c0.3,0,0.5-0.1,0.5-0.2c0.3-0.1,0.5-0.2,0.7-0.2c0.1-0.5,0.4-0.8,0.9-0.6l0,0.2c0.2,0,0.3-0.1,0.3-0.2c0.4,0,0.5-0.2,0.5-0.4
	l-0.6,0.1c0.1-0.1,0.2-0.3,0.3-0.7c0.5-0.1,0.8-0.3,0.9-0.6c0.5,0,0.9-0.4,1.2-1.1c0.1,0,0.2-0.1,0.3-0.3
	C39.1,60.6,39.4,60.5,39.6,60.2z M18.7,57l0,0.4l0.2,0l0-0.4C18.8,57,18.8,56.9,18.7,57C18.7,56.9,18.7,57,18.7,57z M7,97.6
	l-0.2-0.1l0,0.2L7,97.6z M18.5,72.8l0.2,0.1l0.1-0.2l-0.1-0.1C18.7,72.8,18.6,72.8,18.5,72.8z M18.5,58.5c0,0.1,0,0.2,0.1,0.2l0-0.4
	C18.5,58.3,18.5,58.4,18.5,58.5z M8.7,90.9l0.2,0.1C8.9,90.8,8.8,90.8,8.7,90.9z M7.4,96.4l0-0.2l-0.1,0.2L7.4,96.4z M7.7,95.6
	l0-0.3c-0.2,0-0.3,0.1-0.2,0.3C7.5,95.7,7.6,95.7,7.7,95.6C7.7,95.7,7.7,95.6,7.7,95.6z M10.9,89.3c0-0.1-0.1,0-0.2,0l0.2,0.1
	C10.9,89.5,10.9,89.4,10.9,89.3z M11.1,88.7L11.1,88.7L11.1,88.7L11.1,88.7z M11.8,86.4L11.8,86.4l-0.1,0.2L11.8,86.4z M13.6,81.2
	C13.6,81.3,13.5,81.2,13.6,81.2L13.6,81.2c-0.1,0.1-0.1,0.2-0.1,0.3l0.1,0.1c0-0.1,0-0.1,0-0.2C13.6,81.4,13.6,81.3,13.6,81.2z
	 M13.9,80.3l-0.2-0.1c0,0.1-0.1,0.2,0,0.3l0.1,0C13.8,80.5,13.8,80.4,13.9,80.3z M14,79.5L14,79.5l-0.1,0.2C14,79.7,14,79.6,14,79.5
	z M15,76.7l0-0.2l-0.2,0L15,76.7z M15.1,74L15.1,74c0-0.2-0.1-0.3-0.2-0.3c-0.1,0-0.2,0-0.4,0c-0.2,0.1-0.2,0.2-0.2,0.3
	c0,0.4-0.2,0.9-0.5,1.6c0,0.2-0.1,0.4-0.1,0.6c-0.1,0.3-0.1,0.5-0.2,0.7c-0.1,0.2-0.2,0.4-0.3,0.6c0.3,0.3,0.3,0.7-0.1,1.3
	c-0.3,0.6-0.5,1.1-0.4,1.6c0,0.4,0,0.7-0.2,0.9c-0.2,0.1-0.3,0.3-0.4,0.5c-0.1,0.2-0.1,0.4-0.2,0.8c0,0.3-0.1,0.5-0.1,0.7l-0.6,1.7
	c-1,2.6-1.7,4.6-2.1,6l-0.1,0c0,0.3-0.1,0.6-0.2,0.7c-0.2,0.3-0.2,0.6,0.1,0.9c-0.5,0.7-0.9,1.5-1.1,2.5l0.2,0
	c0.6-0.7,0.9-1.5,1-2.5l0.1-0.1c0.1-0.3,0.2-0.6,0.4-1.1c0.2-0.5,0.4-0.9,0.5-1.3c0.1-0.4,0.3-0.7,0.4-1.1c0.1-0.4,0.4-1,0.7-1.8
	c0.4-1,0.6-1.7,0.7-2c0-0.3,0.1-0.8,0.4-1.3c0.1-0.5,0.3-1.3,0.7-2.2c0.3-0.9,0.6-1.6,0.7-1.9C13.9,77.5,14.5,75.6,15.1,74z
	 M15.4,72.3l0.2-0.1c0-0.1,0-0.1-0.1-0.1c-0.2-0.1-0.4-0.1-0.6,0.1l-0.2,0l0.5,0.2L15.4,72.3z M15.5,74.8c-0.2,0-0.2,0.1-0.1,0.2
	C15.5,75,15.5,75,15.5,74.8z M16.5,71.5l-0.2-0.1l0,0.2L16.5,71.5z M16.9,70.3l0-0.2l-0.1,0.1C16.8,70.2,16.8,70.3,16.9,70.3z
	 M17.3,65.4c0.1-0.7,0.2-1.2,0.2-1.6c0-0.4,0.1-0.9,0.3-1.5c0.2-0.7,0.3-1.1,0.4-1.2c0-0.1,0.1-0.2,0.1-0.5c0.1-0.3,0.1-0.5,0.2-0.6
	l0-0.3c0-0.1,0-0.1-0.1-0.2l-0.1-0.2l-0.1,0.2c-0.4,1.5-0.7,2.7-0.9,3.4c0,0.2-0.1,0.5-0.2,0.8c-0.1,0.3-0.2,0.6-0.2,0.7
	c0,0.4-0.1,0.9-0.3,1.5c-0.2,0.6-0.2,1-0.3,1.3c0,0.3-0.2,0.9-0.5,1.8L15,71.4c0,0.2,0.1,0.3,0.2,0.3c0.4,0,0.6-0.2,0.7-0.4
	c0.1-0.6,0.3-1.5,0.5-2.6c0.3-1.1,0.4-1.8,0.5-2.2C17,66.4,17.1,66,17.3,65.4z M17.4,68.2c0-0.2,0-0.3,0-0.5c-0.3,0-0.3,0.2-0.2,0.5
	L17.4,68.2L17.4,68.2z M17.3,72.9l0,0.2l0.1-0.2L17.3,72.9z M19.9,73.7l-0.6-0.3l-0.3,0c-0.1,0.1-0.7,0.1-1.6,0.2
	c-0.2,0.1-0.2,0.2-0.2,0.3C18.8,73.9,19.7,73.8,19.9,73.7z M20.3,72.3l-0.2-0.1l-0.5,0c0,0.1,0,0.1-0.1,0.1l0.1,0.1l0.3,0
	C20.1,72.5,20.2,72.4,20.3,72.3z M24.8,71.2L24.8,71.2C24.9,71.3,24.9,71.3,24.8,71.2L24.8,71.2z M23.8,71.7c0,0.1,0.1,0.1,0.2,0.1
	l0.1-0.1L23.8,71.7z M22.2,71.7c0.4,0,0.6-0.1,0.8-0.2l0.2-0.1l-0.2,0C22.5,71.3,22.2,71.4,22.2,71.7c-0.4,0-0.7,0.1-0.9,0.2l-0.2,0
	c0.1,0,0.2,0.1,0.2,0.1c0.1,0,0.2,0,0.3,0C21.9,72.1,22.1,72,22.2,71.7z M25.2,72.1l-0.2,0c-0.7,0-1.4,0.2-2.1,0.6l0,0.2
	c-0.3,0.1-0.7,0.1-1.1,0.2c-0.1,0-0.1,0.1-0.1,0.2l0.1,0.1c0.6-0.1,1-0.2,1.1-0.4l1.2-0.1c0.2-0.1,0.5-0.3,0.9-0.4
	C25.2,72.3,25.2,72.2,25.2,72.1z M27.9,69.6l0,0.2l0.1,0L27.9,69.6z M27.3,70l0,0.2l0.1,0L27.3,70z M28,70.9
	c-0.2-0.2-0.4-0.3-0.5-0.3l-0.2,0c-0.1,0.1-0.2,0.2-0.4,0.4c0.1,0,0.1,0,0.2,0.1c0.1,0.1,0.2,0.1,0.2,0.1c0.3,0,0.4-0.1,0.5-0.2
	C27.9,71,28,71,28,70.9z M30.8,68c0.1,0,0.1-0.1,0.1-0.2C30.8,67.9,30.8,67.9,30.8,68z M29.8,68.5l0.2,0.1l0-0.2L29.8,68.5z
	 M29.3,69.1c0.1,0,0.2-0.1,0.1-0.2c0-0.1-0.1-0.1-0.2-0.1C29.2,68.9,29.3,69,29.3,69.1z M28.6,69.5c0.1,0,0.1-0.1,0.1-0.2l-0.1-0.1
	l-0.2,0.1C28.5,69.4,28.5,69.5,28.6,69.5z M28.8,70.6l-0.2-0.1l0,0.1L28.8,70.6z M30.1,69.9l-0.2-0.1l-1.1,0.1c0,0.1,0,0.2-0.1,0.2
	l0.1,0.1c0.1,0,0.2,0,0.3,0.1c0.2,0.1,0.3,0.1,0.4,0L30.1,69.9z M30.4,69.1L30.4,69.1c-0.1-0.1-0.2,0,0,0.2
	C30.4,69.2,30.4,69.2,30.4,69.1z M31,68.8L31,68.8c-0.4,0-0.5,0.1-0.5,0.3c0.1-0.1,0.2-0.1,0.4-0.1C30.9,68.9,31,68.9,31,68.8z
	 M31.5,67.5L31.5,67.5l-0.1,0.2L31.5,67.5z M32.1,67.1L32.1,67.1c-0.1,0-0.1,0-0.2,0C32,67.1,32,67.2,32.1,67.1L32.1,67.1z
	 M33.3,66.5l0-0.2l-0.1,0.2L33.3,66.5z M33.9,66.6c0-0.1,0-0.2-0.1-0.1L33.9,66.6L33.9,66.6z M34.2,65.5c-0.1,0.1-0.1,0.2-0.1,0.2
	C34.1,65.7,34.2,65.7,34.2,65.5z M34.4,65.2c0,0.1,0,0.1-0.1,0.2l0,0.1C34.5,65.5,34.5,65.4,34.4,65.2z M34.8,66L34.8,66L34.8,66
	L34.8,66z M35.1,65c0-0.1,0-0.1,0-0.2C34.9,64.9,34.9,65,35.1,65L35.1,65z M35.3,64.6c-0.1,0-0.1-0.1-0.2-0.1l0,0.2
	C35.2,64.8,35.3,64.7,35.3,64.6z M36,64.4l0-0.2l-0.2,0.1L36,64.4z M37.3,63.8L37.3,63.8c0.1,0,0.1,0,0.2,0L37.3,63.8z M54.6,43.1
	L54.6,43.1c0.1,0,0.1,0,0.2-0.1C54.8,43.1,54.7,43.1,54.6,43.1L54.6,43.1z M57.4,34c-0.1,0-0.2,0-0.2-0.1
	C57.2,34.1,57.3,34.2,57.4,34z M56.2,38.9c0,0.1,0.1,0.1,0.2,0.1l0.1-0.1c-0.2-0.3-0.2-0.7,0.2-1.1c0-0.1,0-0.2-0.3-0.4
	c-0.1,0.1-0.1,0.2-0.1,0.3C55.9,38.2,55.9,38.5,56.2,38.9z M54.2,44.9l0,0.3c0-0.1,0-0.1,0.1-0.3l-0.1-0.2
	C54.2,44.7,54.1,44.8,54.2,44.9z M54.9,43c0.2-0.1,0.4-0.3,0.6-0.8c0.2-0.5,0.5-0.8,0.7-0.9l0-0.2c-0.1-0.2-0.1-0.4,0-0.5
	c0-0.1,0.1-0.2,0.2-0.3c0-0.1,0-0.1,0.1-0.3c0.1-0.1,0.1-0.2,0.1-0.3c-0.1-0.2-0.3-0.2-0.7-0.2l-0.5,0c0.3,0.5,0.3,0.8,0,1
	c-0.1,0-0.2,0.1-0.2,0.3c0,0.2-0.1,0.4-0.3,0.4c0.1,0.5,0,0.9-0.2,1.1L54.9,43z M53.8,46.7l-0.2-0.1c-0.3,0-0.5,0.1-0.6,0.3
	c-0.1,0.1-0.2,0.4-0.2,0.9L53.8,46.7L53.8,46.7z M53.5,45.5l0,0.3l0.2,0l0.3-0.5C53.9,45.4,53.7,45.5,53.5,45.5z M54.4,44.1
	L54.4,44.1c0.1,0.1,0.2,0.1,0.3,0.1C54.6,44.1,54.5,44,54.4,44.1z M52.7,47.6c-0.4,0.1-0.6,0.4-0.5,0.9
	C52.6,48.5,52.8,48.2,52.7,47.6z M52.1,48.9c0.1-0.1,0.1-0.1,0.1-0.3L52.1,48.9C52,48.8,52.1,48.8,52.1,48.9z M48.5,53.7l0.5,0
	l0.1-0.2L49,53.4C48.8,53.4,48.6,53.5,48.5,53.7z M51.5,49.7L51.5,49.7L51.5,49.7C51.6,49.8,51.6,49.7,51.5,49.7z M48.8,50.6
	L48.8,50.6l-0.2-0.1C48.7,50.8,48.7,50.8,48.8,50.6z M51.4,50.6c0-0.1,0-0.2-0.1-0.2c-0.1,0-0.2-0.1-0.2-0.1
	c-0.3,0.3-0.5,0.6-0.5,0.9c0.1,0.3,0.3,0.4,0.5,0.3c0.3-0.4,0.4-0.6,0.1-0.8C51.2,50.7,51.2,50.6,51.4,50.6L51.4,50.6z M54.8,44.5
	l0.1-0.2c-0.1,0-0.1,0-0.2-0.1C54.7,44.3,54.7,44.4,54.8,44.5z M50.1,51.9c0.2,0,0.2-0.1,0.1-0.3C50.1,51.8,50,51.9,50.1,51.9z
	 M50,52c-0.1,0.2-0.2,0.3-0.2,0.3C49.9,52.3,50,52.2,50,52z M49.3,52.8L49.3,52.8l0.1-0.2L49.3,52.8z M49.5,52.6
	c0.2,0,0.2-0.1,0.2-0.3C49.5,52.3,49.5,52.4,49.5,52.6z M57.2,36.4L57.2,36.4l0-0.2C57.1,36.3,57.1,36.3,57.2,36.4z M161.8,49.4
	c-1.6,0.9-4.4,2.5-8.6,4.8l-0.2,0.2c-0.6,0.5-1.6,1.1-3,1.8c-1.4,0.7-2.4,1.3-3,1.8c-0.5,0.2-1.3,0.5-2.3,1.1
	c-1,0.6-1.8,0.9-2.3,1.1c-0.3,0.1-0.8,0.4-1.5,0.7c-0.7,0.4-1.3,0.6-1.7,0.8c-1.2,0.5-2.8,1-4.8,1.3c-1.1,0.1-2.3-0.2-3.6-0.8
	c-1.3-0.6-2.2-1.6-2.8-2.8c-0.6-1.5-0.8-2.8-0.5-3.9c0.2-1,0.5-2,1-3c0.1-0.6,0.4-1.2,0.8-2.1c-0.4,0.2-0.7,0.5-0.8,0.8
	c-0.9,0.2-1.6,0.8-2.2,1.6c-2.2,1-3.8,1.8-4.8,2.4c-0.1,0.2-0.1,0.3-0.1,0.3l0.3,0.2c0.2-0.1,0.4-0.2,0.7-0.3
	c0.3-0.1,0.6-0.3,0.8-0.4c0.3-0.1,0.5-0.2,0.8-0.3l0,0.1l-0.1,0c-0.7,0.2-1.3,0.7-1.9,1.7l-0.2,0c-0.4,0-0.7,0.2-0.9,0.5
	c-0.3,0.4-0.4,0.6-0.5,0.6l-2.2,1c-1.4,1.1-3,1.9-4.7,2.4c-0.1,0-0.6,0.2-1.6,0.4c-1,0.3-1.7,0.5-2.2,0.6l-0.8,0.1
	c-0.5,0.5-1.6,0.5-3.1,0.2c-1.3-0.3-2-0.8-2.4-1.4c0-0.1-0.1-0.2-0.2-0.4c-0.1-0.2-0.2-0.3-0.2-0.5c-1.3-1.1-1.8-2.9-1.5-5.4
	c0-0.4,0.1-1,0.3-1.8c0.2-0.8,0.3-1.3,0.3-1.4l0-0.2c-0.2-0.1-0.3-0.2-0.3,0l-5.2,4.5c-0.9,0.6-1.9,1.4-3,2.3
	c-2,1.8-3.1,2.7-3.3,2.9c-0.3,0.3-1.7,1.3-4,3.1c-0.1,0-0.2,0.1-0.3,0.2c-0.2,0.1-0.3,0.2-0.4,0.2l-2.6,0.2c-1.1-0.1-1.9-0.4-2.4-1
	c-0.5-0.6-0.9-1.4-1.2-2.6c-0.1-0.3-0.1-0.7,0-1.1c-0.1,0-0.1,0.1-0.2,0.1c-0.2,0.1-0.3,0.1-0.3,0.2c-0.5,0.5-1.4,1-2.6,1.6
	c-1.2,0.6-2,1-2.4,1.3c-1.5,0.8-3.1,1.7-4.9,2.8c-2.3,1.7-4.8,2.8-7.5,3.4c-0.6,0.3-0.9,0.5-1.1,0.7c-1,0.5-2.4,0.5-4.3,0
	c-0.8-0.1-1.5-0.5-2.2-1c-0.7-0.5-1.4-1.3-1.9-2.5c-0.3-1.2-0.4-2.4-0.3-3.5l0.5-1.1c1-2.8,2.6-5.3,4.9-7.6c2.3-2.6,4.5-4.5,6.7-6
	c0.7-0.7,1.6-1.2,2.7-1.5c0.3-0.1,0.6-0.3,1.2-0.5c0.5-0.2,0.9-0.3,1.1-0.5c1-0.8,1.9-1,2.8-0.5c0.1,0,0.2,0.1,0.3,0
	c0.2,0,0.3,0,0.4,0.1c0.5,0.1,0.8,0.2,0.9,0.2c0.3,0.2,0.8,0.8,1.4,1.6c0.8,1.1,0.8,2.2,0.1,3.1c-0.1,0.2-0.3,0.6-0.7,1.3
	c-0.4,0.7-0.7,1.2-1.1,1.5c-0.3,0.3-0.7,0.6-1.2,0.9l-1,0.8c-1.7,1.7-4.1,2.9-7.1,3.6c-0.4,0.2-1.1,0.3-2.3,0.5c-0.3,0-0.9,0-1.7,0
	c-0.8,0-1.4,0-1.9,0.1c-0.3,0-0.5,0.2-0.7,0.4c-0.2,0.3-0.5,0.9-1.1,1.7c-0.5,0.9-0.9,1.6-1.3,2.2c-0.3,0.6-0.5,1.2-0.7,1.9
	c-0.1,0.8,0.1,1.2,0.8,1.4c1.5,0.2,2.4,0.2,2.7,0c0.8-0.1,2.5-0.6,5-1.4c0.5-0.2,1.2-0.5,2.1-1c0.9-0.5,1.5-0.8,1.8-0.9
	c0.9-0.5,2.2-1.3,3.8-2.4c0.2,0.2,0.4,0.3,0.4,0.3c0.1,0,0.2-0.1,0.4-0.4c0.4-0.5,1.1-1,1.9-1.5c0-0.1,0.4-0.3,1-0.6
	c0.8-0.4,2-1.2,3.7-2.1c1.7-1,2.9-1.7,3.7-2.1c0.3-0.2,0.6-0.4,1.1-0.6c0.8-1,2-2.5,3.5-4.4c0.7-0.9,2.4-2.5,5-4.8
	c1-0.8,2.8-1.8,5.2-2.7c0.5-0.3,1.2-0.3,2.2-0.1c1,0.3,1.6,0.7,2,1.2c0.1,0.1,0.2,0.3,0.3,0.5c0.1,0.2,0.1,0.3,0,0.4
	c-0.1,0.1-0.2,0.2-0.4,0.1c-0.4-0.2-0.9-0.2-1.5-0.1c-0.6,0.1-1,0.2-1.3,0.3c-0.3,0.1-0.6,0.2-1.1,0.5c-0.5,0.3-0.8,0.4-0.9,0.5
	c-1,0.7-2.6,2.1-4.5,4.3l-2.5,3c-0.1,0.1-0.1,0.1-0.2,0.2c0.1,0.1,0.2,0.1,0.3,0.1c0.3,0.1,0.5,0.4,0.6,0.7c0.1,0.3,0.1,0.6-0.1,0.8
	c0,0.2-0.1,0.3-0.5,0.3c-0.4,0.1-1.5,0.6-3.2,1.5c-0.1,0.2-0.3,0.4-0.4,0.5c-0.2,0.1-0.3,0.4-0.4,0.8c0,0.4-0.1,0.6-0.3,0.7
	c-0.9,1.1-1.3,1.7-1.2,1.9l0.2,0.1c0.2,0,0.4-0.1,0.6-0.2c0.2-0.1,0.4-0.2,0.6-0.4c0.2-0.2,0.4-0.3,0.6-0.3c2-1.2,4-2.7,6.2-4.7
	c1.4-1.1,3.5-2.8,6.3-5.2c1.3-1.2,2.8-2.4,4.6-3.7c0.2-0.1,0.3-0.2,0.5-0.3c0.2-0.1,0.3-0.2,0.3-0.2c0.1-0.1,0.2-0.2,0.5-0.2
	c0.3,0.3,0.7,0.6,1.3,0.6c0.6,0.1,0.9,0.1,1,0.2c0,0.1,0.2,0.1,0.6,0.2c-0.1,0.2-0.1,0.4,0.2,0.6c0.3,0.2,0.4,0.4,0.4,0.5
	c0,0.1,0,0.3,0.1,0.7c0.1,0.4,0.1,0.6-0.1,0.6c-0.1,0.3-0.2,0.8-0.2,1.4c0,0.6-0.1,1-0.1,1.1c-0.3,0.8-0.7,2-1.1,3.4
	c-0.3,0.9-0.5,1.6-0.6,2c0,0.2-0.1,0.5-0.3,0.8c-0.2,0.3-0.2,0.6,0,0.8c0.5,0.1,1.2,0.1,2,0c1.8-0.2,3.8-0.8,5.8-1.8l4.1-2.3
	c7.4-3.7,11.5-5.7,12.4-6l1.7-0.6c0.9-1.6,1.9-2.9,2.9-4.1c0.9-0.8,1.4-1.3,1.5-1.4c1.5-1.5,3.1-2.3,5-2.4c1.2,0.1,2,0.3,2.4,0.5
	c1.9,0.8,3.1,1.6,3.7,2.3c0.4,0.5,0.7,0.8,1,1c0.8,0.8,1.4,1.9,1.7,3.1c0.1,0.8-0.1,1.5-0.7,2.1c-0.5,0.4-1.2,0.4-2,0.2
	c-0.4-0.3-0.6-0.7-0.7-1l-0.1-1c0.2-0.7,0.1-1.4-0.3-2.2c-0.5-1.4-1.5-2-3-1.9c-2.1,0.5-3.7,1.2-4.7,2c-0.1,0.1-0.3,0.3-0.5,0.5
	c-0.2,0.2-0.4,0.4-0.5,0.5c-0.7,0.7-1.4,1.5-2.1,2.4c-0.1,0.3-0.5,0.8-1,1.7c-0.6,0.8-1,1.5-1.2,2c-1.2,2.4-1.8,4.4-1.9,6.1
	c-0.2,0.6,0.1,1,0.8,1.3c0.5,0.2,2,0.1,4.4-0.3c0.6-0.2,1.4-0.5,2.4-1c3.2-1.4,7.2-3.5,12.1-6.4c1.5-0.7,5.4-2.8,11.5-6.4l4.7-2.5
	c0.3-0.1,0.7-0.6,1.3-1.3c0.5-0.6,1.1-0.9,1.6-0.8c0,0,0-0.1,0-0.1l0-0.4c0.3-0.1,0.6-0.3,0.8-0.6c0.2-0.2,0.5-0.5,0.7-0.9
	c0.2-0.3,0.4-0.6,0.6-0.8l0,0.2c0.1,0.1,0.1,0.2,0.1,0.2c0.1,0,0.2,0,0.3-0.1c0.1,0,0.2,0,0.2-0.1c0-0.1,0.2-0.2,0.3-0.5
	c0.2-0.3,0.3-0.4,0.5-0.6c-0.1-0.7,0.3-1.2,1.1-1.6l0.1,0.9c0.2,0.1,0.4,0,0.6-0.4c0.2-0.3,0.4-0.4,0.7-0.3c0-0.1,0.1-0.2,0.2-0.3
	c0.4-0.5,0.6-0.9,0.5-1.3c0.2-0.1,0.5-0.2,1-0.2c0.5,0,0.8-0.1,0.9-0.4c0.1-0.2,0.6-0.7,1.4-1.6c1-0.9,1.8-1.6,2.2-2
	c0.5-0.2,0.9-0.6,1.2-1.2c0.5-0.4,1.1-0.9,1.8-1.7c0.7-0.8,1.2-1.3,1.5-1.6c0.5-0.4,1.9-1.8,4.1-4.2c0.5-0.6,1.3-1.4,2.2-2.4
	c0.9-1,1.5-1.7,1.8-2c4-5,6.8-9.5,8.3-13.4c0.2-0.7,0-1.4-0.7-2.2c-0.1,0-0.2-0.1-0.4-0.1c-0.2,0-0.3,0-0.3,0.1l-0.6,0.5
	c-0.4,0.3-0.6,0.6-0.7,0.9c-0.1,0.3-0.3,0.5-0.4,0.6c-1,0.8-2,1.7-2.8,2.6c-2.6,2.8-4.4,4.9-5.4,6.4c-1,1.5-2,2.7-2.9,3.7
	c-0.1,0.2-0.1,0.3-0.1,0.3l-0.6,0.1c-0.1-0.1-0.3-0.1-0.6-0.1l0-0.4c-0.3,0-0.4,0.2-0.4,0.4c0,0.1-0.2,0.1-0.4,0.2
	c-0.2,0.1-0.3,0.2-0.4,0.2c0,0.2,0,0.5,0,0.8l0.1,0l-0.1,0.1c0.4-0.2,0.8-0.3,1.3-0.2c-0.2,0.4-0.4,0.6-0.5,0.8
	c-0.3,0.5-0.4,1-0.3,1.5c-0.2,0.9-0.5,1.5-0.9,1.8c-0.4,0.1-1.1,0.6-2.2,1.5c0.1,0.5-0.1,0.9-0.6,1.3l-0.2,0l-0.2-0.1l-0.1,0.2
	l-0.4,0l-0.1-0.6c-0.1,0-0.2,0-0.4,0.1c-0.2,0.1-0.4,0.1-0.5,0.2l-0.1-0.7c-0.1,0.1-0.3,0.2-0.7,0.4c0-0.2,0-0.3,0.2-0.4
	c0.3-0.7,0.7-1.3,1.2-1.8c0.1,0.2,0.2,0.3,0.4,0.4l0-0.1c0-0.1,0.1-0.2,0-0.3l-0.4,0c0.1-0.9,0.5-1.5,1.4-2l0.1,0.9
	c0.4-0.3,0.6-0.5,0.7-0.6c0,0.3,0,0.6-0.1,1c0,0.1-0.1,0.2-0.2,0.4c-0.1,0.1-0.2,0.2-0.2,0.3c0.4,0.4,0.7,0.4,1-0.1
	c0.3-0.3,0.4-0.6,0.5-0.8c0.1-0.2,0.3-0.4,0.3-0.6c0.1-0.2,0.2-0.5,0.2-0.8c0.1-0.3,0.1-0.6,0.2-0.8l0.2,0l0-0.2
	c0-0.1,0.1-0.2,0.1-0.2c-0.1,0-0.3,0.2-0.5,0.4c-0.1,0.1-0.4,0.5-1,1.1l-0.1-0.6c-0.3,0.2-0.5,0.3-0.6,0.3l-0.5,0.4
	c-0.1-0.9,0.3-1.4,1.1-1.5l0,0.4c0.2,0,0.3-0.2,0.4-0.4l-0.4,0l0-0.2c0.4-1,0.9-1.6,1.4-1.8c0.1,0.2,0.1,0.4,0.1,0.6l0.3,0l-0.1-0.6
	l-0.3,0c0.2-1.3,0.8-2.1,1.7-2.6c0.3,0.1,0.4,0.1,0.5,0l0.2-0.5l-0.2,0c-0.1-0.2-0.1-0.4-0.1-0.6c0-0.2,0.2-0.3,0.3-0.6
	c0.2-0.2,0.4-0.4,0.6-0.7c0.2-0.3,0.5-0.6,1-1.1c0.5-0.5,0.9-1,1.3-1.6c1.6-1.6,2.7-2.8,3.2-3.5c0.8-0.8,1.2-1.2,1.4-1.2
	c0.4-0.4,0.7-0.6,0.9-0.9c0.2-0.3,0.6-0.7,1.2-1.2c0.7-1,2.1-1.5,4.2-1.6c0.3,0,0.5,0,0.8,0c0.2,0,0.5,0.1,0.8,0.2
	c0.3,0.1,0.5,0.2,0.6,0.2c0.1,0,0.3,0.2,0.6,0.4c0.3,0.2,0.5,0.4,0.5,0.4c0.1,0,0.2,0.2,0.6,0.5c0.3,0.3,0.5,0.5,0.6,0.5
	c0.1,0.1,0.1,0.3,0.1,0.5L205.9,3c0,0.2,0,0.3,0,0.4c-0.8,2.4-1.6,4.3-2.2,5.7c-0.6,1.4-1.1,2.3-1.3,2.6c-0.2,0.3-0.5,0.6-0.7,0.7
	c-0.2,0.2-0.4,0.3-0.4,0.4c-0.1,0.2-0.3,0.4-0.6,0.7c-0.3,0.3-0.5,0.5-0.6,0.7c-0.4,0.7-1.4,1.9-2.8,3.5c-1.2,1.3-1.9,2.1-2,2.4
	l-1.8,2.5c-0.2,0.3-1.4,1.7-3.7,4.3c-0.8,0.9-2.3,2.3-4.4,4.2c-1.5,1.4-2.7,2.6-3.8,3.5c-1,1.1-3.2,2.8-6.5,5.2l-0.8,0.5
	c-0.7,0.3-1.5,0.7-2.3,1.3c-0.1,0.1-0.3,0.2-0.4,0.4c0.1,0.1,0.3,0.3,0.4,0.5c0,0.3,0.1,0.5,0.1,0.5l0,0.5l-4,2.1l-2.5,1.4
	C163.9,48.2,162.6,48.9,161.8,49.4z M182.7,21.5c-0.4,0.5-0.6,1-0.6,1.4l0.4,0c0-0.1,0-0.3,0.1-0.6C182.7,22,182.7,21.7,182.7,21.5z
	 M189.2,12.4l-0.2,0L189.2,12.4c-0.6,0.2-0.9,0.6-1.1,1.1c-0.5,0.3-0.7,0.8-0.7,1.3c0.6-0.5,1-1,1-1.4l0.2-0.3
	c0.1-0.1,0.1-0.2,0.1-0.3l0.1-0.1C189.1,12.8,189.2,12.7,189.2,12.4z M190.9,9.8c-0.1,0.1-0.4,0.4-1,0.9c0,0.2-0.1,0.4-0.4,0.5
	l0.1,0.7c0,0.1-0.1,0.2,0,0.3c0.1-0.1,0.2-0.3,0.2-0.4l-0.1,0c0-0.1,0.1-0.1,0.2-0.1l0.9-1l0.1-0.3C190.9,10.4,191,10.1,190.9,9.8z
	 M199.7,10.1c0.4-0.2,0.5-0.5,0.2-0.9C199.8,9.4,199.7,9.7,199.7,10.1z M58.2,58.1l0.9-0.1c0.2-0.1,0.5-0.2,1-0.3l0,0.2
	c0.2-0.1,0.6-0.2,1.1-0.3c0.5-0.1,0.9-0.2,1.1-0.3c1.1-0.5,1.9-0.9,2.6-1.3c1.9-0.8,3.6-1.9,5.3-3.4c0.8-0.6,1.4-1.4,1.7-2.6
	c0.1-0.2,0.2-0.5,0.1-1.1c0.1-0.2-0.1-0.5-0.5-0.8c-0.3-0.2-0.5-0.1-0.6,0.4c0,0.3-0.3,0.4-0.9,0.5c-1.9,0.3-3.5,1-4.8,2.1
	c-0.9,0.5-2.5,1.8-4.8,4l-1.9,2.3C58.3,57.7,58.1,57.9,58.2,58.1z M93.8,54.4l-0.2,0l0,0.2L93.8,54.4z M94.1,53.8
	c-0.2,0-0.2,0.2-0.2,0.4C94.1,54.2,94.1,54,94.1,53.8z M95.1,53c-0.3,0-0.6,0.3-1,0.8C94.8,53.7,95.1,53.4,95.1,53z M96.3,52
	c-0.4,0-0.8,0.3-1,0.9C95.9,52.9,96.3,52.6,96.3,52z M98.7,50.2c-0.6,0.1-0.9,0.4-1.1,1c-0.7,0.1-1,0.3-1,0.7c0.7-0.1,1-0.3,1-0.7
	C98.1,51.1,98.5,50.8,98.7,50.2z M101,48.3c-0.5,0-0.8,0.3-1.1,0.9c-0.7,0.2-1,0.5-1.1,0.9c0.4,0,0.8-0.3,1.1-0.9
	C100.5,49.2,100.8,48.9,101,48.3z M102,47.4c-0.6,0.1-0.9,0.3-1,0.8C101.6,48.3,102,48,102,47.4z M102.3,47.1L102.3,47.1L102.3,47.1
	L102.3,47.1z M116.8,57.1l-1.7,0.2c-0.6,0.2-1.5,0.4-2.6,0.8c-1.1,0.4-1.8,0.6-2.1,0.7l-0.2,0.1c-0.1,0.1-0.2,0.2-0.3,0.3l0,0.2
	c0,0.1,0.1,0.1,0.2,0.1c0,0.1,0.1,0.1,0.2,0.1c0.2-0.1,0.6-0.2,1.1-0.5c0.5-0.2,0.9-0.4,1.1-0.4c0.2,0,0.7,0,1.3,0.2l0.2,0
	c0.2-0.2,0.6-0.4,1.3-0.7C116,57.8,116.5,57.4,116.8,57.1z M117.3,54.8c0-0.2-0.1-0.2-0.3-0.2l-0.2,0l0.3,0.2L117.3,54.8z M117.9,57
	c0-0.1,0.1-0.1,0.1-0.2C117.9,56.8,117.8,56.9,117.9,57L117.9,57z M118.3,54.1l0.3,0.1l0-0.2L118.3,54.1z M119,56.5L119,56.5
	l-0.2-0.1c-0.4,0-0.5,0.2-0.5,0.4l0.6-0.1C119,56.7,119,56.6,119,56.5z M119.7,53.4l-0.5,0.1c-0.3,0.1-0.5,0.2-0.6,0.5l0.7-0.1
	C119.6,53.9,119.7,53.7,119.7,53.4z M121.8,52.6l0-0.2c-0.9,0-1.5,0.3-1.9,0.9C120.6,53.5,121.2,53.2,121.8,52.6z M123.7,51.5
	c-0.6,0-1.3,0.3-1.9,0.9C122.7,52.4,123.4,52.1,123.7,51.5z M126.8,51L126.8,51l-0.2-0.1L126.8,51z M128.4,49.5
	c-0.9-0.1-2.1,0.3-3.5,1.2l0,0.1l-0.9,0.1c-0.1,0-0.1,0.2-0.1,0.6c0.5-0.1,0.9-0.3,1.1-0.7C126.1,50.7,127.2,50.2,128.4,49.5
	L128.4,49.5z M129.6,49.5c0-0.1,0.1-0.2,0.1-0.2c0.1-0.3,0.3-0.5,0.4-0.8c-0.5,0.2-1.1,0.5-1.8,0.8l0,0.1c0.3,0.1,0.6,0.1,1.1,0.2
	C129.5,49.5,129.6,49.5,129.6,49.5z M150.4,52.9c-0.7,0.1-1.1,0.2-1.2,0.3C149.9,53.2,150.3,53.1,150.4,52.9z M158.5,48.8
	c1.8-1.1,3.5-2,5.2-2.7c1.2-0.8,2-1.3,2.3-1.3c0.3,0,0.6-0.2,1-0.7c0.1-0.1,0.3-0.2,0.6-0.4c0,0,0,0,0.1-0.1c0-0.3,0.1-0.5,0.3-0.7
	c-0.3,0-0.7,0.1-1.2,0.4c-1.6,0.7-2.6,1.4-3.2,1.9c-0.1,0-0.1,0-0.3,0.1c-0.1,0-0.2,0.1-0.3,0.1c-0.5,0.2-1.1,0.5-1.8,0.9
	c-0.8,0.4-1.2,0.7-1.4,0.7c-2.5,1.4-3.9,2.3-4.4,2.6c-0.5,0.2-1.2,0.6-2.2,1.2c-1,0.6-1.7,1-2.1,1.2c-0.6,0.1-0.8,0.3-0.8,0.8
	l3.4-1.3L158.5,48.8z M165.5,49.6c0,0.1-0.1,0.2,0,0.3c0,0.1,0,0.2-0.1,0.2l0.5,0l-0.1-0.8C165.7,49.4,165.6,49.4,165.5,49.6z
	 M169.4,45.6c0.1,0,0.2-0.1,0.3-0.2c0.2-0.1,0.2-0.2,0.2-0.5c-0.3,0.1-0.5,0.2-0.5,0.3C169.2,45.5,169.3,45.6,169.4,45.6z
	 M164.4,53.2c0-0.1,0-0.2-0.1-0.3c-0.1-0.1-0.1-0.1-0.1-0.2c0,0.1-0.1,0.1-0.1,0.2L164,53c-0.1,0.2-0.2,0.5-0.2,0.9
	c0.3-0.3,0.5-0.5,0.6-0.5L164.4,53.2z M164.9,48.9c0.6-0.2,0.8-0.6,0.8-1.3C165.3,47.8,165.1,48.2,164.9,48.9z M168.1,47.3
	c-0.2,0-0.5,0.1-0.8,0.3c-0.2,0.1-0.3,0.3-0.3,0.6c-0.1,0.3-0.2,0.5-0.3,0.6c0.2,0.5,0.1,0.8-0.2,1l-0.2,0.1l0,0.2l-0.4,0
	c0.1,0.7-0.2,1.2-0.7,1.3l0.1,0.7l0.4,0c0.1-0.2,0.4-0.6,1-1.3c0.8-0.7,1.2-1.4,1.2-2.1l0-0.1l-0.3,0l0.2-0.2c0.1,0,0.1,0,0.1,0.2
	c0.1-0.2,0.4-0.6,0.7-1.3C168.3,47.3,168.2,47.3,168.1,47.3z M163.3,52.8c0.6-0.4,0.8-1,0.6-1.7C163.6,51.4,163.4,52,163.3,52.8z
	 M172.6,35.2c0.2-0.2,0.5-0.4,0.8-0.5l-0.1-0.8C172.8,34.3,172.5,34.7,172.6,35.2z M164,51.1c0.4-0.3,0.7-0.7,0.6-1.1
	C164.1,50.1,163.9,50.4,164,51.1z M173.7,33.5L173.7,33.5l-0.2,0L173.7,33.5z M175.4,30c0,0.2,0,0.3-0.1,0.4c0.1,0,0.3-0.1,0.5-0.2
	c0.2-0.1,0.4-0.2,0.5-0.2C175.8,29.5,175.5,29.5,175.4,30z M178.3,30.4c-0.1,0.1-0.2,0.2-0.3,0.3c-0.2,0.3-0.4,0.4-0.4,0.4
	c-0.2,0.2-0.4,0.4-0.5,0.4l-0.2,1.1c0.4,0,0.6-0.2,0.8-0.5c0.2-0.1,0.3-0.2,0.6-0.5c0.2-0.3,0.3-0.4,0.4-0.5
	c0.4-0.4,0.5-0.7,0.3-0.9c-0.2,0-0.3-0.1-0.4,0C178.5,30.2,178.4,30.3,178.3,30.4z M179.2,29c0-0.1-0.1-0.1-0.2-0.1
	c-0.1,0-0.1,0.1-0.2,0.2c-0.1,0.1-0.1,0.2-0.2,0.3c0,0.1,0.1,0.2,0.2,0.1C179.3,29.6,179.4,29.4,179.2,29z M179.3,25.1l-0.1-0.7
	c-0.6,0.8-0.9,1.2-1,1.4C178.7,25.7,179,25.5,179.3,25.1z M175.4,33.9c-0.1,0.1-0.1,0.1-0.1,0.2l0.3,0c0-0.1,0-0.2-0.1-0.3
	C175.6,33.8,175.5,33.8,175.4,33.9z M161.9,57l-0.1-0.7C161.5,56.5,161.5,56.8,161.9,57z M162.9,53.6c-0.2,0.1-0.3,0.4-0.2,0.9
	l0.3,0L162.9,53.6z M179.6,24c-0.2,0-0.3,0.1-0.3,0.3l0.3,0l0,0.2l0.1,0l0-0.2L179.6,24z M164.8,52.2l-0.1-0.7
	C164.5,51.8,164.5,52,164.8,52.2z M182,24.4l-0.2,0c0.1,0.1,0.2,0.2,0.2,0.4C182,24.6,182,24.5,182,24.4z M179.4,25.1
	c-0.1,0.6-0.3,1.1-0.6,1.4c-0.4,0.1-0.5,0.4-0.5,0.7c0.4,0,0.7,0,0.9,0.1c-0.2,0.1-0.3,0.3-0.3,0.5c-0.1,0.4-0.1,0.6,0.2,0.5
	c0.2-0.1,0.3-0.1,0.6-0.2c0.2-0.1,0.4-0.1,0.6-0.2c0.1-0.1,0.2-0.4,0.2-0.7c0-0.1,0.3-0.2,0.7-0.2l0.2,0c-0.1,0-0.2-0.1-0.2-0.3
	c-0.4,0-0.7,0-0.7,0c0-0.1,0.1-0.2,0.2-0.3c0.1-0.1,0.2-0.1,0.2-0.2c0.4,0,0.5-0.1,0.5-0.3c0-0.3-0.3-0.5-0.7-0.4l-0.4,0
	c0-0.3,0-0.5,0-0.7c0-0.1,0-0.1,0.1-0.2c0-0.1,0.1-0.2,0-0.3c-0.1,0.1-0.4,0.2-0.7,0.2C179.6,24.8,179.5,25.1,179.4,25.1z M188,42.6
	c-0.7,0.1-1.2,0.4-1.5,1.1l1.2-0.1c0,0.1,0,0.1-0.1,0.3l-0.2,0.1c-0.2,0.1-0.3,0.2-0.3,0.3c0.1,0,0.2,0,0.3,0c0.2,0,0.3,0,0.3,0
	c0.7-0.6,1.1-1,1.2-1.1l-0.9,0.1L188,42.6z M186.7,16.7l0-0.4l-0.4,0L186.7,16.7z M185.7,44.5l0.4-0.1c0.2-0.2,0.3-0.5,0.3-0.7
	c-0.9,0.3-1.5,0.7-1.8,1.3l0.7-0.1C185.3,44.7,185.5,44.6,185.7,44.5z M184.6,45L184.6,45l-0.1,0.2l0.1,0L184.6,45z M185.8,45.2
	c0.2,0,0.3-0.1,0.4-0.2l-0.7,0.1l0,0.2C185.5,45.3,185.6,45.2,185.8,45.2z M185.5,45.1l0-0.2l-0.2,0l0,0.2L185.5,45.1z M162.1,56.2
	l-0.2,0l0,0.1L162.1,56.2L162.1,56.2z M186.7,16.7l0.1,0.8C187.1,17.2,187.1,16.9,186.7,16.7z M162.7,55.3l-0.1-0.8
	c-0.7,0.3-0.9,0.9-0.6,1.6l0.2,0C162.3,55.7,162.4,55.4,162.7,55.3z M162.4,59.1L162.4,59.1l-0.2-0.1l0,0.1L162.4,59.1z M161.8,59.1
	L161.8,59.1L161.8,59.1L161.8,59.1L161.8,59.1z M177.4,29.7c0.2-0.3,0.2-0.6,0.3-1.1c0,0.1-0.2,0.3-0.4,0.5
	c-0.2,0.2-0.4,0.4-0.5,0.6l-0.4,0.4l0.1,0.7C176.8,30.3,177.2,29.9,177.4,29.7z M178.4,27.4c-0.6,0.2-0.8,0.6-0.8,1.2
	C178.2,28.5,178.4,28.1,178.4,27.4z M164.8,52.2L164.8,52.2l0.2,0.1l0-0.1L164.8,52.2z M174.2,34.7c0.3-0.4,0.6-0.6,0.8-0.6
	c-0.2-0.6,0-1,0.5-1.2l0-0.2c0-0.4,0.2-0.8,0.8-1.2l-0.1-0.9c-0.1,0-0.2,0.1-0.4,0.2c-0.2,0.2-0.4,0.3-0.5,0.4l-0.1-0.9
	c-0.4,0.1-0.6,0.6-0.5,1.2l0.3,0c0.1,0.5-0.1,1-0.5,1.3c0,0.3-0.1,0.4-0.5,0.4c0-0.2,0.2-0.3,0.5-0.4c-0.2-0.1-0.4-0.4-0.4-0.8
	c-0.5,0.4-0.7,0.8-0.5,1.2l0.2,0.1c0.1,0,0.2,0,0.2,0c0.1,0.5-0.2,0.9-0.7,1.3l0.1,0.8c0.1-0.1,0.2-0.2,0.4-0.4
	C174,35,174.1,34.8,174.2,34.7z M176.5,31.5l-0.2,0c0.1,0,0.1,0.2,0.1,0.3C176.5,31.7,176.5,31.6,176.5,31.5z M234.5,46.9l0-0.5
	l-0.7,0.1C233.8,46.8,234.1,47,234.5,46.9z M237.8,44.7c0,0.1-0.1,0.3,0,0.6c0.4,0,0.6-0.1,0.6-0.1c0-0.1,0.1-0.3,0-0.6
	C238,44.6,237.8,44.6,237.8,44.7z M247.3,40.9c0,0.2,0,0.2,0.1,0.2l0.4,0c0.2,0,0.4-0.1,0.5-0.1c0.1-0.1,0.2-0.2,0.2-0.4l-1.1,0.1
	L247.3,40.9z M248.5,40.6l0.2,0l0-0.1L248.5,40.6L248.5,40.6z M256.8,38.2c-0.4,0-0.7,0-1-0.1c-0.3,0-0.6,0-0.8,0
	c-2.5,0.1-4.7,0.5-6.6,1c-0.1,0.1-0.3,0.1-0.5,0.2c-0.3,0.1-0.4,0.1-0.5,0.2c-3,1-5.2,2-6.7,2.8c-0.1,0-0.1,0.1-0.3,0.3
	c0.7-0.1,1.1-0.2,1.4-0.4c1.6-0.8,3.2-1.4,4.8-1.8c0.6-0.4,1.1-0.6,1.5-0.6c0.3,0.2,0.5,0.4,0.6,0.7c1.1,0,1.9-0.3,2.2-0.8
	c0.6-0.1,1-0.2,1.3-0.3c1-0.5,2-0.8,3.1-0.7c1.1-0.1,1.9-0.3,2.5-0.6C257.6,38.2,257.2,38.2,256.8,38.2z M233.4,47.4
	c0-0.3-0.2-0.4-0.5-0.4l0,0.4L233.4,47.4z M233.8,47.6c0.1,0,0.2,0,0.2-0.1l-0.2-0.1l-0.4,0l0,0.2C233.6,47.7,233.8,47.7,233.8,47.6
	z M240.1,42.7c-0.7,0.1-1.7,0.5-2.9,1.4l0,0.1l1.1-0.1c0.9-0.7,1.5-1,1.8-1L240.1,42.7z M239.2,44.2c-0.1-0.1-0.4-0.2-0.9-0.2l0,0.2
	L239.2,44.2z M240.4,43l0,0.5l0.7-0.1C241,43.1,240.8,43,240.4,43z M237.1,45.3c-0.1,0-0.1,0-0.2,0.1c0,0.1,0.1,0.1,0.2,0.2
	c0.3,0.1,0.5,0,0.6-0.3c-0.1,0-0.1,0-0.2,0C237.3,45.3,237.2,45.3,237.1,45.3z M237.7,45.4L237.7,45.4L237.7,45.4
	C237.7,45.4,237.7,45.4,237.7,45.4z M223,53.7c0.3,0.1,0.7-0.2,1.1-0.8C223.5,52.9,223.1,53.2,223,53.7z M220.6,55.5
	c0.5,0.1,0.8,0,0.8-0.5C221.1,55,220.9,55.2,220.6,55.5z M220,56.4l0.7-0.1l-0.1-0.7C220.2,55.9,220,56.1,220,56.4z M215.1,61.4
	c-0.4,0-0.6,0.3-0.6,0.8l0.6-0.1L215.1,61.4z M221.5,54.9l0.8-0.1c0.1-0.3,0.2-0.6,0.3-0.7C222.2,54.1,221.8,54.4,221.5,54.9z
	 M219.9,56.4c-0.1,0-0.2,0-0.3,0c-0.1,0-0.2,0-0.1,0.1c-0.8,0.8-1.2,1.3-1.4,1.6L219,58c0-0.2,0.1-0.2,0.3-0.3
	c0-0.1,0.1-0.3,0.3-0.6C219.7,56.9,219.8,56.6,219.9,56.4z M225.2,52c-0.6,0.1-0.9,0.3-1,0.7C224.5,52.8,224.8,52.5,225.2,52z
	 M234.6,47.2c0,0.2,0.1,0.3,0.2,0.3l0.1-0.2l0.1-0.2l0-0.3l-0.4,0L234.6,47.2z M235.2,46.3c-0.5-0.1-0.7-0.2-0.8-0.2l0,0.4
	c0,0.2,0.2,0.3,0.4,0.4l0.1,0c0.6-0.1,0.9-0.2,1.1-0.3c0.1-0.2,0.2-0.3,0.2-0.5l-0.2,0C236,46.3,235.7,46.4,235.2,46.3z M234.4,45.7
	c1.2-0.1,2-0.6,2.6-1.4C236.3,44.2,235.4,44.7,234.4,45.7z M232.9,47.1c-0.4,0-0.7,0.2-0.8,0.5l-0.4,0l-0.2,0.1l-0.2,0.1
	c0.2,0.1,0.3,0.2,0.3,0.2l0.4,0l0-0.4l0.8-0.1l0.5,0.3c0,0.3-0.2,0.4-0.6,0.3c-0.1,0-0.2,0-0.2,0c-0.1,0.4-0.3,0.6-0.8,0.6
	c0-0.2-0.1-0.2-0.3-0.1l0.3,0.1c0,0.4-0.1,0.7-0.3,0.7c0-0.2-0.1-0.2-0.2-0.1c0.2,0,0.2,0,0.2,0.1c-0.3,0.2-0.6,0.5-0.8,0.9
	c-0.2,0.4-0.4,0.8-0.6,1.3c-0.2,0.5-0.4,0.8-0.5,1l0,0.3c0.2,0.6,0.1,1.1-0.4,1.6c-0.1,0.2-0.4,0.8-0.6,1.6
	c-0.3,0.8-0.6,1.4-0.9,1.8c0.1,0.3,0.1,0.6,0,0.9c-0.1,0.3-0.2,0.6-0.5,1c-0.3,0.4-0.4,0.7-0.4,0.7c-0.1,0.1-0.2,0.4-0.2,0.7
	c-0.1,0.4-0.2,0.7-0.3,0.8c0,0.1-0.1,0.3-0.2,0.5c-0.1,0.2-0.1,0.4-0.1,0.5c0,0.1-0.1,0.3-0.2,0.5c-0.1,0.2-0.3,0.3-0.4,0.4
	c0,0.1,0,0.3-0.1,0.6c-0.1,0.3-0.1,0.6-0.2,0.9c-0.1,0-0.1,0.1-0.2,0.3c-0.1,0.2-0.2,0.3-0.3,0.3c-0.2,0.3-0.6,0.9-0.9,1.8
	c-0.1,0.4-0.4,0.8-0.7,1c-0.4,0.3-0.7,1-0.8,2c0,0.1-0.1,0.3-0.2,0.5c-0.1,0.2-0.1,0.3-0.1,0.4c0,0.1-0.2,0.3-0.6,0.5
	c-0.3,0.2-0.4,0.5-0.3,0.8c0,0.2-0.3,0.5-0.8,1.1l-0.8,1.4l-0.8,1c-0.2,0.2-0.6,0.6-1,1.2c-0.5,0.6-0.8,1-1.1,1.3
	c-1.1,1-2.2,1.4-3.5,1.3c-1.5-0.1-2.8-0.8-3.8-2.3l-1-2.3c-0.7-1.5-0.7-2.7,0-3.7c0.1-0.4,0.2-0.8,0.4-1.2c0.2-0.4,0.4-0.8,0.7-1.3
	c0.3-0.5,0.5-0.9,0.6-1.1c1.7-2.5,3-4.3,4-5.5c0.3-0.4,0.5-0.6,0.6-0.5c0.2,0.1,0.4,0.3,0.4,0.6c0.3-0.1,0.4-0.4,0.6-0.7
	c0.6-0.4,0.9-0.7,0.9-0.9l-0.9,0.1c0.1-0.7,0.7-1.4,1.7-2.2l0.4,0l0,0.2c-0.1,0.3-0.2,0.5-0.3,0.6c-0.3,0-0.4,0.1-0.4,0.4
	c0.3,0,0.4-0.1,0.4-0.4l0.5-0.6c0.5,0,1-0.5,1.5-1.3c0.2,0,0.3-0.2,0.3-0.4c0.8-0.1,1.3-0.5,1.5-1.4c1-0.5,1.5-1,1.5-1.4l0.3-0.1
	c0.2-0.1,0.3-0.1,0.4-0.2c0.7-0.3,1.2-0.6,1.6-1.1c0-0.1,0.3-0.3,0.9-0.6l0.3-0.6c0-0.1,0.1-0.1,0.1-0.3L226,52
	c-0.1,0-0.2,0-0.3-0.1c-0.1-0.1-0.2-0.1-0.3-0.1c0-0.3,0.3-0.6,0.9-0.7c0.6-0.3,1-0.8,1.1-1.7c0.6-2,1.6-5.6,3.1-10.8
	c0-0.1,0-0.1,0.1-0.3c0-0.1,0.1-0.3,0-0.4l-0.3-0.2l-0.2,0.1c-0.2,0.1-0.3,0.1-0.3,0.1c-0.9,0.8-2.3,1.9-4.2,3.4
	c-1.9,1.5-3.4,2.6-4.3,3.4c-1.6,1.3-3.3,2.3-5,3c-0.6,0.3-1.2,0.3-1.9,0.1c-0.7-0.2-1.2-0.6-1.6-1.2c-0.5-1.3-0.7-2.3-0.5-3.2
	c0-0.2,0.1-0.4,0.1-0.7c-0.3,0-0.5,0-0.7,0l-2.1,1c-2.3,1.9-3.6,3.1-4,3.4c-0.1,0.1-0.2,0.3-0.4,0.5l-0.3,0.3
	c-0.6,0.3-1.6,1.2-3.2,2.5c-2,1.9-3.3,3.1-3.6,3.5c-0.5,0.3-1.2,0.7-2,1.4c-0.8,0.7-1.3,1.1-1.6,1.3c-0.1,0.1-0.7,0.5-1.9,1.3
	c-2.2,1.5-4.7,2.3-7.4,2.2c-0.8-0.1-1.4-0.5-1.9-1.3c-0.5-0.8-0.7-1.6-0.4-2.5c0.3-0.6,0.5-0.9,0.5-1c0.4-0.7,1.1-1.9,2.1-3.6
	c1-1.7,1.7-3,2.1-3.9c0.5-0.8,0.8-1.7,0.9-2.6c0-0.2,0.2-0.5,0.5-0.9c0.3-0.4,0.4-0.6,0.5-0.8c0.1-0.2,0-0.4-0.3-0.5l-0.1-0.6
	l-0.8,0.1c0-0.3,0.2-0.5,0.6-0.7c0.4-0.4,0.9-0.7,1.5-1l0.1-0.2c-0.1-0.2-0.2-0.2-0.4-0.2c-0.3,0.1-0.8,0.4-1.4,0.8
	c-0.6,0.4-1,0.7-1.4,0.8c-0.7,0.3-1.3,0.6-1.9,1.1c-0.6,0.4-1.3,1-2,1.6c-0.8,0.6-1.3,1.1-1.7,1.3c-0.8,0.4-1.9,1.3-3.3,2.6
	c-0.8,0.7-1.9,1.7-3.2,3c-0.2,0.2-1,1-2.5,2.5c-1.5,1.5-2.5,2.6-3.3,3.4c-1,1-1.6,1.9-1.9,2.7c0.2,0,0.3-0.1,0.4-0.1
	c0.1-0.1,0.2-0.1,0.3-0.2c0.1-0.1,0.2-0.1,0.2-0.1c3.2-3.4,4.9-5.3,5.3-5.6c1-0.8,1.8-1.5,2.4-2.2c0.2-0.1,0.4-0.3,0.8-0.7
	c0.4-0.4,0.7-0.6,1.1-0.6c0-0.1,0.1-0.2,0.2-0.3c0.1-0.2,0.2-0.3,0.2-0.3c0.3-0.4,1.2-1.1,2.5-2.2c0.2-0.2,0.4-0.4,0.8-0.4
	c0.1-0.2,0.3-0.3,0.4-0.4c0.3-0.4,0.6-0.6,0.7-0.6l0.1,0.6l0.2-0.3c0-0.1,0-0.1-0.1-0.1c-0.1,0-0.1-0.1-0.2-0.2
	c0.4-0.9,1.1-1.3,2-1.2c0.1,0,0.1,0.1,0.1,0.2l0.7-0.1c0,0.1-0.1,0.2-0.2,0.3c-0.1,0.1-0.1,0.2-0.1,0.3c-1.2,1-2.3,1.8-3.4,2.2
	l0-0.4c0,0.1-0.1,0.2-0.2,0.3c-0.1,0.1-0.1,0.1-0.1,0.2c-0.5,0-0.8,0.2-0.8,0.5l0.7-0.1c-0.2,0.3-0.3,0.6-0.5,0.8
	c-0.5,0.5-1.5,1.4-2.9,2.8c-1.4,1.4-2.5,2.4-3.4,3.1c-1.5,1.5-2.6,2.7-3.2,3.6c-0.3,0.3-2.1,2.4-5.5,6.3c-0.1,0.2-0.3,0.4-0.8,0.7
	c-0.4,0.3-0.7,0.6-0.7,1l-1.8,1.6c0,0.1-0.3,0.1-0.8,0.2c-0.6,0-1.3-0.5-2.1-1.5c-0.6-0.6-0.7-1.3-0.2-2.1c0.4-1.2,0.8-2.6,1.1-4.5
	l0.1-0.1l0.2-0.1l0,0.4c0.1,0,0.1,0,0.2,0c0.1,0,0.1,0,0.2,0l0-0.3l-0.3-0.1c0-0.1,0.1-0.3,0-0.5c0-0.2,0-0.4,0-0.5
	c0-0.1,0.2-0.2,0.4-0.3l0,0.2l0.1,0.3c0.2,0,0.2-0.1,0.2-0.3l0.1-0.2l0.2,0c0.1,0.2,0.1,0.4,0.2,0.8c0.1,0,0.2,0,0.3,0.1l0.1-0.2
	c0-0.4,0-0.6,0.2-0.8c0.2-0.1,0.2-0.4,0.2-0.9c0.3-0.1,0.4-0.4,0.4-0.8c-0.3,0.1-0.4,0.3-0.4,0.7l0,0.2c-0.3,0.1-0.4,0.4-0.4,0.8
	l-0.3,0c-0.2-0.5-0.3-0.7-0.4-0.8c0-0.1,0-0.2,0-0.4c0-0.2,0-0.3,0-0.3c0.4-0.2,0.5-0.4,0.5-0.6c0.3-0.1,0.4-0.4,0.4-0.8
	c0.3-0.2,0.4-0.5,0.4-0.9c0.2-0.1,0.3-0.4,0.2-0.8l0.5,0l0.1,1.2c0.6-1.1,1-1.8,1-2.2c0.1,0,0.2,0,0.4-0.1l0.2-0.1
	c-0.1-0.2-0.1-0.4-0.1-0.5l0-0.5l0.2,0c0.1,0,0.2,0.2,0.2,0.4c0-0.3,0.1-0.4,0.2-0.4c0.2,0.1,0.3,0.2,0.4,0.4c0,0.1-0.1,0.2-0.2,0.5
	c-0.1,0.2-0.2,0.4-0.3,0.5c-0.1,0.2-0.3,0.7-0.6,1.4c-0.3,0.7-0.5,1.2-0.8,1.5c0.2,0.2,0.1,0.5-0.1,0.9c-0.3,0.3-0.4,0.6-0.4,0.7
	c0.1,0.6,0,1.1-0.2,1.4c-0.1,0.4-0.2,0.9-0.4,1.6c-0.2,0.7-0.3,1.1-0.3,1.3c0,0.1,0.1,0.2,0.2,0.4l0.1-0.2c0.1-0.2,0.4-0.4,0.7-0.7
	c0.3-0.3,0.6-0.5,0.8-0.8c0.2-0.2,0.5-0.5,0.6-0.7l3.4-3.7c0-0.3,0.4-0.6,1.1-1.1c0.4-0.6,0.6-0.9,0.8-1.1l6.4-6.3
	c1-0.8,1.8-1.3,2.3-1.5c0.2-0.2,0.4-0.3,0.4-0.4c0.4-0.6,1.1-1.1,2.2-1.6c0.9-0.5,1.5-1,1.8-1.4c0.3-0.4,1.1-0.9,2.2-1.5
	c1-0.7,1.7-1.2,2.2-1.5c1.4-0.8,2.6-1.3,3.7-1.3l0.6-0.1c0.4,0.6,1.1,0.9,2,0.8l0,0.1c-0.1,0.3,0,0.5,0.2,0.7
	c0.2,0.2,0.4,0.3,0.4,0.5c0.4,1.7,0.2,3.1-0.7,4.4c-0.2,0.3-0.6,0.9-1.1,1.7c-0.6,0.8-0.9,1.4-1.1,1.9c-0.2,0.3-0.5,0.4-0.7,0.5
	c-0.4,0-0.7,0-0.9-0.1c-0.3,0-0.6,0.1-0.8,0.4c-0.7,1.3-1.1,2.2-1.3,2.7c-0.7,1.5-1.4,2.8-2,3.8l-0.1,0.4c0.2,0.3,0.4,0.4,0.6,0.2
	l1.5-0.5c2.1-0.9,4.2-2.2,6.2-3.9c0.6-0.4,1.6-1.3,2.9-2.5c0.4-0.4,1.1-0.9,1.9-1.7c0.8-0.7,1.5-1.3,1.9-1.7
	c1.2-1.2,3.1-2.8,5.9-4.8c0.4-0.3,1-0.7,1.9-1.3c0.4-0.5,1.2-0.7,2.2-0.7c0.3,0,0.5,0,0.6,0.1c0.3,0.2,0.6,0.4,0.9,0.6
	c0.6-1.8,1.5-3.6,2.7-5.4c0.8-0.8,1.2-1.3,1.4-1.5c0.2-0.2,0.5-0.2,0.9-0.1c0.4,0.1,0.7,0.3,0.9,0.8c0.2,0.7,0.2,1.2,0,1.7
	c0,0.1,0,0.2-0.1,0.4c-0.1,0.2-0.2,0.3-0.2,0.5c-0.4,0.5-1.1,2.1-2.3,4.8c-0.4,1.3-0.6,2-0.6,2.1c0.2,0.1,0.3,0.1,0.3,0.1
	c1.1-0.4,1.7-0.7,1.8-0.7c0.9-0.8,2.2-1.9,3.7-3.1c0.2-0.2,2.5-2,6.8-5.4l3.9-2.8c0.1-0.1,0.2-0.1,0.4-0.2c0.2-0.1,0.3-0.2,0.4-0.3
	c0-0.3,0.1-0.6,0.3-0.7c0.2-0.2,0.5-0.3,0.8-0.4c0.3-0.1,0.6-0.2,0.7-0.2c0.4-0.1,0.7,0,0.9,0.3c0.1,0.1,0.4,0.2,0.7,0.2
	c0.4,0.1,0.6,0.2,0.7,0.3c0.7,0.6,0.7,1,0.1,1.3c-0.6,0.4-1.1,1.3-1.7,2.6c-0.6,1.3-1.4,3.8-2.5,7.6c-0.2,0.4-0.4,1.1-0.7,1.9
	c-0.3,0.9-0.5,1.5-0.7,1.9c0,0.3,0.1,0.4,0.4,0.4l0.5,0c1-0.5,1.6-0.8,1.9-0.8l0,0.4c-0.4,0-0.6,0.2-0.7,0.5
	C233.2,46.6,233,46.7,232.9,47.1z M213.4,64.3c0.4,0,0.6-0.3,0.6-0.8C213.6,63.7,213.5,63.9,213.4,64.3z M222.6,67.2l-0.4,0l0.1,0.7
	C222.6,67.9,222.7,67.7,222.6,67.2z M222.7,64.1l-0.8,0.4c0,0.5-0.2,0.9-0.6,1.3c-0.1,0.1-0.2,0.3-0.3,0.7c-1.2,2.8-2.6,5.1-4.2,7.1
	c-0.2,0.2-0.6,0.7-1.1,1.5c-0.6,0.7-1,1.3-1.4,1.7c-0.5,0.4-0.8,0.8-0.9,1.2l0.5,0c1.1-0.8,1.8-1.6,2.3-2.1c0.3-0.6,0.7-0.9,1.4-1
	c0.2-0.1,0.2-0.2,0.1-0.4c-0.1,0-0.1-0.1-0.3-0.1l-0.2-0.1l0.6-0.6c0-0.1,0.1-0.3,0.3-0.4c0.1-0.2,0.2-0.3,0.3-0.4
	c0.1,0.3,0.3,0.3,0.6,0.1l0.4-0.3l0,0.2c0.1,0.3,0.2,0.4,0.4,0.5c0-0.1,0-0.1,0-0.2c0-0.1,0-0.2,0-0.3l0-0.2l-0.5,0
	c0-0.1-0.1-0.2-0.2-0.3s-0.1-0.3-0.1-0.4c0.1-0.4,0.2-0.6,0.3-0.6c0.1,0,0.4,0,0.8,0l0.1-0.9c0.1-0.4,0.4-0.9,0.8-1.7
	c-0.4-0.2-0.4-0.3,0-0.4c0-0.2,0-0.3,0.2-0.3c0.1,0,0.2-0.2,0.4-0.4c0.2,0,0.4-0.1,0.5-0.2l-0.1-0.7c0.4-0.4,0.6-0.7,0.5-1
	c0-0.3,0-0.5,0-0.6C222.9,64.6,223,64.3,222.7,64.1z M223,63.1c0.3-0.1,0.4-0.4,0.3-1C223.1,62.3,223,62.6,223,63.1
	c-0.3,0.1-0.4,0.4-0.3,0.7c0.4,0,0.6-0.1,0.6-0.1c0-0.1,0-0.2-0.3-0.5L223,63.1z M225.1,60.2c-0.1,0-0.2-0.3-0.3-0.8
	c-0.3,0.1-0.4,0.3-0.3,0.7c-0.3,0.1-0.4,0.4-0.3,0.8c0.3,0,0.4-0.3,0.3-0.8l0.4,0C224.8,60.3,224.9,60.4,225.1,60.2z M225.8,54.6
	c0-0.3-0.3-0.4-0.7-0.3c-0.2,0.2-0.5,0.5-0.9,0.8c-0.4,0.3-0.7,0.5-0.8,0.7l-1.5,1.4c-0.8,0.6-1.4,1.2-1.7,1.8
	c-0.6,0.9-1.9,2.3-3.9,4.4c-1.3,1.5-2.1,2.6-2.4,3.5c-0.2,0.4-0.4,0.8-0.8,1.2c-0.5,0.5-1.2,1.7-2.1,3.5c-0.1,0.5-0.3,0.9-0.5,1
	c-0.3,0.3-0.6,0.6-0.7,1c-0.1,0.4-0.1,0.8-0.1,1.4c0,0.5,0,0.9-0.1,1.2l0.2,0.2c0.1,0.1,0.2,0.3,0.3,0.4c0.1,0,0.2,0,0.4,0.2
	c0.2,0.1,0.3,0.2,0.5,0.2c1.2,0,2.2-0.4,3-1.2c2.9-2.8,4.9-5.7,6.3-8.7c0.4-0.7,0.7-1.1,0.9-1.2c-0.1-0.7,0.2-1.2,0.8-1.4l0-0.5
	c0.7-1.8,1.2-3.1,1.7-4.1c0.8-1.8,1.2-2.8,1.2-3.1C225.1,55.8,225.4,55.1,225.8,54.6z"/>
</svg>
